<svg width="163" height="60" viewBox="0 0 163 60" fill="none" xmlns="http://www.w3.org/2000/svg">
<mask id="mask0_124_49" style="mask-type:luminance" maskUnits="userSpaceOnUse" x="0" y="0" width="163" height="60">
<path d="M162.017 0H0V59.7162H162.017V0Z" fill="white"/>
</mask>
<g mask="url(#mask0_124_49)">
<mask id="mask1_124_49" style="mask-type:luminance" maskUnits="userSpaceOnUse" x="0" y="0" width="163" height="60">
<path d="M162.074 0H0V59.7162H162.074V0Z" fill="white"/>
</mask>
<g mask="url(#mask1_124_49)">
<path fill-rule="evenodd" clip-rule="evenodd" d="M0 0H17.3651V13.2703H23.1534V6.63513H28.9419V0H46.307V19.9054H40.5185V26.5405H34.7302V33.1757H40.5185V39.8108H46.307V59.7162H28.9419V53.0811H23.1534V46.4459H17.3651V59.7162H0V0ZM115.767 0H133.133V13.2703H138.921V6.63513H144.709V0H162.074V19.9054H156.286V26.5405H150.498V33.1757H156.286V39.8108H162.074V59.7162H144.709V53.0811H138.921V46.4459H133.133V59.7162H115.767V0ZM52.0953 0H69.4605V59.7162H52.0953V0ZM92.6139 0H81.0373V6.63513H75.2488V53.0811H81.0373V59.7162H92.6139H109.979V39.8108H92.6139V19.9054H109.979V0H92.6139Z" fill="white"/>
</g>
</g>
</svg>
