<svg width="114" height="110" viewBox="0 0 114 110" fill="none" xmlns="http://www.w3.org/2000/svg">
<path fill-rule="evenodd" clip-rule="evenodd" d="M87.3239 107.892C88.8534 109.136 90.8246 109.447 92.582 108.683C94.3395 107.914 95.6315 106.19 96.021 104.101C100.149 81.8236 110.161 25.4368 113.919 5.17201C114.204 3.64465 113.729 2.05729 112.684 1.03723C111.639 0.0171734 110.19 -0.277389 108.898 0.273551C88.9816 8.73948 27.6463 35.1682 2.57633 45.8216C0.985117 46.498 -0.0503591 48.2544 0.00188976 50.18C0.0588885 52.111 1.18936 53.7857 2.81858 54.3475C14.0616 58.2095 28.8195 63.5826 28.8195 63.5826C28.8195 63.5826 35.7163 87.5021 39.312 99.6664C39.7632 101.194 40.8035 102.394 42.1762 102.808C43.5441 103.218 45.0071 102.787 46.0283 101.679C51.8042 95.4171 60.734 85.7347 60.734 85.7347C60.734 85.7347 77.7006 100.021 87.3239 107.892ZM35.0276 60.5606L43.0027 90.7696L44.7744 71.6394C44.7744 71.6394 75.5869 39.723 93.152 21.5311C93.665 20.9965 93.7363 20.1019 93.3088 19.4746C92.886 18.8473 92.1071 18.7 91.5228 19.1255C71.1648 34.0555 35.0276 60.5606 35.0276 60.5606Z" fill="white"/>
</svg>
