<svg width="119" height="121" viewBox="0 0 119 121" fill="none" xmlns="http://www.w3.org/2000/svg">
<g clip-path="url(#clip0_124_37)">
<path d="M114.248 92.9393C112.072 97.9117 106.461 102.415 101.191 103.41C100.652 103.512 87.7739 105.875 59.5374 105.875H59.463C31.2302 105.875 18.3411 103.512 17.8056 103.413C12.5361 102.415 6.92078 97.9117 4.74159 92.9356C4.54822 92.4932 0.00390625 81.8527 0.00390625 60.5C0.00390625 39.1473 4.54822 28.5031 4.74159 28.0607C6.92078 23.0845 12.5361 18.5848 17.8056 17.5904C18.3411 17.4883 31.2302 15.125 59.463 15.125C87.7738 15.125 100.652 17.4883 101.187 17.5866C106.461 18.5848 112.072 23.0845 114.251 28.0569C114.445 28.5031 119 39.1473 119 60.5C119 81.8527 114.445 92.4932 114.248 92.9393ZM107.446 31.1197C106.286 28.469 102.649 25.5575 99.83 25.0243C99.711 25.0016 86.9669 22.6875 59.5374 22.6875C32.0372 22.6875 19.2819 25.0016 19.1592 25.0243C16.3404 25.5575 12.7072 28.469 11.5432 31.1348C11.506 31.2142 7.44513 40.9472 7.44513 60.5C7.44513 80.0491 11.506 89.782 11.5506 89.8803C12.7072 92.531 16.3404 95.4425 19.1629 95.9757C19.2819 95.9984 32.0372 98.3125 59.463 98.3125H59.5374C86.9669 98.3125 99.711 95.9984 99.8338 95.9757C102.653 95.4425 106.286 92.531 107.45 89.8652C107.487 89.782 111.555 80.0491 111.555 60.5C111.555 40.9509 107.487 31.2142 107.446 31.1197ZM50.3558 82.6052C49.7533 82.9947 49.0617 83.1875 48.3737 83.1875C47.7564 83.1875 47.1391 83.0325 46.5775 82.7148C45.3912 82.0493 44.6549 80.7826 44.6549 79.4062V41.5938C44.6549 40.2212 45.3838 38.9582 46.5627 38.2927C47.7415 37.6234 49.1881 37.6537 50.3298 38.3759L80.1504 57.1158C81.24 57.8002 81.9094 59.0102 81.9131 60.3147C81.9168 61.6193 81.2623 62.8368 80.1764 63.5288L50.3558 82.6052ZM52.0962 48.3773V72.5584L71.1659 60.3601L52.0962 48.3773Z" fill="white"/>
</g>
<defs>
<clipPath id="clip0_124_37">
<rect width="119" height="121" fill="white"/>
</clipPath>
</defs>
</svg>
