<svg width="460" height="154" viewBox="0 0 460 154" fill="none" xmlns="http://www.w3.org/2000/svg">
<g filter="url(#filter0_d_167_26)">
<path d="M4 33C4 14.7746 18.7746 0 37 0H423C441.225 0 456 14.7746 456 33V113C456 131.225 441.225 146 423 146H37C18.7746 146 4 131.225 4 113V33Z" fill="#0075FF"/>
</g>
<g clip-path="url(#clip0_167_26)">
<path fill-rule="evenodd" clip-rule="evenodd" d="M109.643 48.7637C107.981 48.7637 106.383 49.1546 105.144 49.864L83.4996 62.2582C80.9344 63.7272 79 67.0501 79 69.9879V94.776C79 97.7138 80.9344 101.037 83.4994 102.505L105.144 114.9C106.383 115.609 107.981 116 109.643 116C111.305 116 112.903 115.609 114.142 114.9L114.149 114.896L135.786 102.505C138.351 101.037 140.286 97.7138 140.286 94.776V69.9879C140.286 67.0501 138.351 63.7272 135.786 62.2584L114.142 49.864C112.903 49.1546 111.305 48.7637 109.643 48.7637ZM100.516 91.3391C100.104 91.0988 99.6954 90.8594 99.292 90.6201C98.3161 89.9844 97.3857 88.3281 97.3857 87.1898V79.0221C97.3857 78.4963 97.3873 77.9752 97.3916 77.4595C97.4513 76.2895 98.4078 74.6518 99.3844 74.0831L106.453 69.9687C106.886 69.7163 107.317 69.4674 107.745 69.2232C108.221 68.9791 108.917 68.8342 109.643 68.8342C110.42 68.8342 111.167 68.9991 111.642 69.2752L118.805 73.4449C119.204 73.6778 119.601 73.9106 119.993 74.1429C120.969 74.778 121.9 76.4351 121.9 77.5739V85.895C121.899 86.3672 121.898 86.8359 121.894 87.3004C121.837 88.4703 120.879 90.1114 119.901 90.6806L112.742 94.848C112.34 95.0817 111.941 95.3123 111.543 95.5393C111.068 95.7839 110.37 95.9295 109.643 95.9295C108.865 95.9295 108.118 95.7646 107.644 95.4885L100.516 91.3391Z" fill="url(#paint0_linear_167_26)"/>
<path fill-rule="evenodd" clip-rule="evenodd" d="M145 30V89.9467C145 94.271 142.755 98.2886 139.064 100.571L129.286 106.618V45.6364C129.286 37.0006 136.321 30 145 30Z" fill="url(#paint1_linear_167_26)"/>
</g>
<path d="M187.4 83.168C187.4 84.512 187.416 85.904 187.448 87.344C187.48 88.784 187.624 90.352 187.88 92.048H183.224L182.264 88.544H181.64C180.904 89.824 179.848 90.848 178.472 91.616C177.128 92.352 175.512 92.72 173.624 92.72C170.264 92.72 167.656 91.68 165.8 89.6C163.944 87.488 163.016 84.24 163.016 79.856C163.016 77.744 163.272 75.84 163.784 74.144C164.328 72.448 165.112 71.008 166.136 69.824C167.192 68.64 168.488 67.728 170.024 67.088C171.56 66.448 173.336 66.128 175.352 66.128C176.472 66.128 177.432 66.224 178.232 66.416C179.064 66.576 179.88 66.784 180.68 67.04V58.4H187.4V83.168ZM175.352 87.104C176.856 87.104 178.024 86.768 178.856 86.096C179.688 85.392 180.296 84.4 180.68 83.12V73.04C180.104 72.592 179.48 72.272 178.808 72.08C178.168 71.856 177.32 71.744 176.264 71.744C174.12 71.744 172.52 72.368 171.464 73.616C170.44 74.864 169.928 77.008 169.928 80.048C169.928 82.16 170.36 83.872 171.224 85.184C172.12 86.464 173.496 87.104 175.352 87.104ZM193.157 79.424C193.157 75.264 194.261 72 196.469 69.632C198.677 67.264 201.829 66.08 205.925 66.08C208.069 66.08 209.941 66.416 211.541 67.088C213.141 67.76 214.469 68.704 215.525 69.92C216.581 71.104 217.365 72.512 217.877 74.144C218.421 75.744 218.693 77.504 218.693 79.424C218.693 81.472 218.405 83.328 217.829 84.992C217.253 86.624 216.421 88.016 215.333 89.168C214.245 90.32 212.901 91.2 211.301 91.808C209.733 92.416 207.941 92.72 205.925 92.72C203.749 92.72 201.861 92.384 200.261 91.712C198.661 91.04 197.333 90.112 196.277 88.928C195.221 87.712 194.437 86.304 193.925 84.704C193.413 83.072 193.157 81.312 193.157 79.424ZM200.069 79.424C200.069 80.48 200.181 81.472 200.405 82.4C200.629 83.328 200.965 84.144 201.413 84.848C201.893 85.52 202.501 86.064 203.237 86.48C203.973 86.896 204.869 87.104 205.925 87.104C209.829 87.104 211.781 84.544 211.781 79.424C211.781 78.304 211.669 77.28 211.445 76.352C211.253 75.392 210.917 74.576 210.437 73.904C209.989 73.2 209.381 72.656 208.613 72.272C207.877 71.888 206.981 71.696 205.925 71.696C204.101 71.696 202.661 72.304 201.605 73.52C200.581 74.736 200.069 76.704 200.069 79.424ZM241.167 92V78.176C241.167 76 240.831 74.432 240.159 73.472C239.487 72.512 238.303 72.032 236.607 72.032C235.167 72.032 233.935 72.432 232.911 73.232C231.919 74 231.231 74.992 230.847 76.208C230.847 78.832 230.847 81.472 230.847 84.128C230.879 86.752 230.895 89.376 230.895 92H224.175V66.8H229.455L230.175 70.4H230.895C231.727 69.216 232.831 68.208 234.207 67.376C235.583 66.512 237.375 66.08 239.583 66.08C240.927 66.08 242.111 66.256 243.135 66.608C244.191 66.928 245.055 67.504 245.727 68.336C246.431 69.136 246.959 70.224 247.311 71.6C247.695 72.976 247.887 74.704 247.887 76.784V92H241.167ZM253.344 79.424C253.344 75.264 254.448 72 256.656 69.632C258.864 67.264 262.016 66.08 266.112 66.08C268.256 66.08 270.128 66.416 271.728 67.088C273.328 67.76 274.656 68.704 275.712 69.92C276.768 71.104 277.552 72.512 278.064 74.144C278.608 75.744 278.88 77.504 278.88 79.424C278.88 81.472 278.592 83.328 278.016 84.992C277.44 86.624 276.608 88.016 275.52 89.168C274.432 90.32 273.088 91.2 271.488 91.808C269.92 92.416 268.128 92.72 266.112 92.72C263.936 92.72 262.048 92.384 260.448 91.712C258.848 91.04 257.52 90.112 256.464 88.928C255.408 87.712 254.624 86.304 254.112 84.704C253.6 83.072 253.344 81.312 253.344 79.424ZM260.256 79.424C260.256 80.48 260.368 81.472 260.592 82.4C260.816 83.328 261.152 84.144 261.6 84.848C262.08 85.52 262.688 86.064 263.424 86.48C264.16 86.896 265.056 87.104 266.112 87.104C270.016 87.104 271.968 84.544 271.968 79.424C271.968 78.304 271.856 77.28 271.632 76.352C271.44 75.392 271.104 74.576 270.624 73.904C270.176 73.2 269.568 72.656 268.8 72.272C268.064 71.888 267.168 71.696 266.112 71.696C264.288 71.696 262.848 72.304 261.792 73.52C260.768 74.736 260.256 76.704 260.256 79.424ZM282.552 88.736C282.552 87.552 282.936 86.624 283.704 85.952C284.472 85.28 285.48 84.944 286.728 84.944C288.008 84.944 289.032 85.28 289.8 85.952C290.568 86.624 290.952 87.552 290.952 88.736C290.952 89.856 290.568 90.768 289.8 91.472C289.032 92.176 288.008 92.528 286.728 92.528C285.48 92.528 284.472 92.176 283.704 91.472C282.936 90.768 282.552 89.856 282.552 88.736ZM319.397 91.04C319.397 94.752 318.341 97.488 316.229 99.248C314.117 101.008 311.125 101.888 307.253 101.888C304.757 101.888 302.741 101.712 301.205 101.36C299.701 101.04 298.533 100.672 297.701 100.256C298.117 98.976 298.421 97.952 298.613 97.184C298.837 96.448 298.997 95.888 299.093 95.504C299.189 95.12 299.253 94.88 299.285 94.784C299.317 94.688 299.333 94.64 299.333 94.64C300.101 95.024 301.029 95.408 302.117 95.792C303.205 96.208 304.533 96.416 306.101 96.416C307.413 96.416 308.501 96.288 309.365 96.032C310.229 95.776 310.917 95.392 311.429 94.88C311.941 94.4 312.293 93.808 312.485 93.104C312.709 92.4 312.821 91.616 312.821 90.752V88.88H312.245C311.605 89.808 310.725 90.464 309.605 90.848C308.485 91.232 307.093 91.424 305.429 91.424C302.005 91.424 299.429 90.48 297.701 88.592C296.005 86.704 295.157 83.664 295.157 79.472C295.157 75.056 296.277 71.728 298.517 69.488C300.789 67.248 304.149 66.128 308.597 66.128C310.933 66.128 313.013 66.288 314.837 66.608C316.693 66.896 318.213 67.232 319.397 67.616V91.04ZM307.013 86.192C308.485 86.192 309.685 85.92 310.613 85.376C311.573 84.832 312.261 84.16 312.677 83.36V72.512C311.493 72 309.989 71.744 308.165 71.744C306.213 71.744 304.709 72.32 303.653 73.472C302.597 74.624 302.069 76.528 302.069 79.184C302.069 81.616 302.517 83.392 303.413 84.512C304.309 85.632 305.509 86.192 307.013 86.192ZM349.115 91.04C349.115 94.752 348.059 97.488 345.947 99.248C343.835 101.008 340.843 101.888 336.971 101.888C334.475 101.888 332.459 101.712 330.923 101.36C329.419 101.04 328.251 100.672 327.419 100.256C327.835 98.976 328.139 97.952 328.331 97.184C328.555 96.448 328.715 95.888 328.811 95.504C328.907 95.12 328.971 94.88 329.003 94.784C329.035 94.688 329.051 94.64 329.051 94.64C329.819 95.024 330.747 95.408 331.835 95.792C332.923 96.208 334.251 96.416 335.819 96.416C337.131 96.416 338.219 96.288 339.083 96.032C339.947 95.776 340.635 95.392 341.147 94.88C341.659 94.4 342.011 93.808 342.203 93.104C342.427 92.4 342.539 91.616 342.539 90.752V88.88H341.963C341.323 89.808 340.443 90.464 339.323 90.848C338.203 91.232 336.811 91.424 335.147 91.424C331.723 91.424 329.147 90.48 327.419 88.592C325.723 86.704 324.875 83.664 324.875 79.472C324.875 75.056 325.995 71.728 328.235 69.488C330.507 67.248 333.867 66.128 338.315 66.128C340.651 66.128 342.731 66.288 344.555 66.608C346.411 66.896 347.931 67.232 349.115 67.616V91.04ZM336.731 86.192C338.203 86.192 339.403 85.92 340.331 85.376C341.291 84.832 341.979 84.16 342.395 83.36V72.512C341.211 72 339.707 71.744 337.883 71.744C335.931 71.744 334.427 72.32 333.371 73.472C332.315 74.624 331.787 76.528 331.787 79.184C331.787 81.616 332.235 83.392 333.131 84.512C334.027 85.632 335.227 86.192 336.731 86.192Z" fill="white"/>
<defs>
<filter id="filter0_d_167_26" x="0" y="0" width="460" height="154" filterUnits="userSpaceOnUse" color-interpolation-filters="sRGB">
<feFlood flood-opacity="0" result="BackgroundImageFix"/>
<feColorMatrix in="SourceAlpha" type="matrix" values="0 0 0 0 0 0 0 0 0 0 0 0 0 0 0 0 0 0 127 0" result="hardAlpha"/>
<feOffset dy="4"/>
<feGaussianBlur stdDeviation="2"/>
<feComposite in2="hardAlpha" operator="out"/>
<feColorMatrix type="matrix" values="0 0 0 0 0 0 0 0 0 0 0 0 0 0 0 0 0 0 0.25 0"/>
<feBlend mode="normal" in2="BackgroundImageFix" result="effect1_dropShadow_167_26"/>
<feBlend mode="normal" in="SourceGraphic" in2="effect1_dropShadow_167_26" result="shape"/>
</filter>
<linearGradient id="paint0_linear_167_26" x1="3143.29" y1="48.7637" x2="3143.29" y2="7881.29" gradientUnits="userSpaceOnUse">
<stop stop-color="#DDE6EE"/>
<stop offset="1" stop-color="white"/>
</linearGradient>
<linearGradient id="paint1_linear_167_26" x1="1023.76" y1="23280.5" x2="-2273.58" y2="486.521" gradientUnits="userSpaceOnUse">
<stop stop-color="#B0B0FE"/>
<stop offset="1" stop-color="#DFE7F0"/>
</linearGradient>
<clipPath id="clip0_167_26">
<rect width="66" height="86" fill="white" transform="translate(79 30)"/>
</clipPath>
</defs>
</svg>
