<svg width="460" height="154" viewBox="0 0 460 154" fill="none" xmlns="http://www.w3.org/2000/svg">
<g filter="url(#filter0_d_167_36)">
<path d="M4 33C4 14.7746 18.7746 0 37 0H423C441.225 0 456 14.7746 456 33V113C456 131.225 441.225 146 423 146H37C18.7746 146 4 131.225 4 113V33Z" fill="#662D91"/>
</g>
<path d="M376.315 55.7817V72.4241C376.321 74.3514 375.946 76.2607 375.212 78.0413C374.478 79.8219 373.4 81.4384 372.041 82.7972L365.896 88.9739L371.326 94.4364L377.471 88.2597C379.547 86.1865 381.192 83.72 382.313 81.0032C383.434 78.2863 384.007 75.373 384 72.4319V55.7817H376.315Z" fill="white"/>
<path d="M366.164 55.7818H358.483V69.5637C358.482 70.9244 357.944 72.2292 356.987 73.1917C356.03 74.1543 354.733 74.696 353.379 74.698H348.306C346.931 74.696 345.613 74.1463 344.642 73.1693C343.67 72.1924 343.123 70.868 343.121 69.4864V63.9776C343.117 60.7813 341.852 57.7172 339.603 55.4571C337.355 53.197 334.306 51.9255 331.126 51.9214H313.64C310.46 51.9245 307.41 53.1955 305.161 55.4557C302.912 57.7159 301.646 60.7807 301.642 63.9776V69.4864C301.64 70.868 301.093 72.1924 300.121 73.1693C299.149 74.1463 297.832 74.696 296.457 74.698H291.768C290.414 74.696 289.116 74.1543 288.159 73.1917C287.202 72.2292 286.665 70.9244 286.664 69.5637V55.7818H278.982V69.5637C278.981 70.9244 278.443 72.2292 277.486 73.1917C276.53 74.1543 275.232 74.696 273.878 74.698H262.771V82.419H273.878C277.225 82.4208 280.438 81.0993 282.823 78.7399C285.208 81.0993 288.421 82.4208 291.768 82.419H296.457C299.711 82.4205 302.844 81.1785 305.221 78.9445C307.462 81.1726 310.488 82.4212 313.64 82.419H331.115C334.268 82.421 337.295 81.1724 339.537 78.9445C341.914 81.1811 345.05 82.4234 348.306 82.419H353.379C356.769 82.4138 360.019 81.0577 362.415 78.6478C364.812 76.238 366.16 72.9712 366.164 69.5637V55.7818ZM335.439 70.3589C335.438 71.5087 334.984 72.6112 334.175 73.4247C333.367 74.2381 332.27 74.696 331.126 74.698H313.652C313.084 74.6991 312.521 74.5876 311.997 74.37C311.472 74.1525 310.995 73.8331 310.593 73.4301C310.191 73.0271 309.872 72.5485 309.654 72.0215C309.436 71.4945 309.324 70.9296 309.323 70.3589V63.9776C309.325 62.8277 309.781 61.7257 310.59 60.913C311.399 60.1003 312.496 59.6433 313.64 59.6423H331.126C332.27 59.6443 333.366 60.1017 334.174 60.9143C334.982 61.7269 335.437 62.8284 335.439 63.9776V65.4639V70.3589Z" fill="white"/>
<path d="M263.62 55.7817H255.938V69.5635C255.937 70.9243 255.399 72.2291 254.443 73.1916C253.486 74.1542 252.188 74.6959 250.834 74.6979H204.201C202.848 74.6959 201.55 74.1542 200.593 73.1916C199.636 72.2291 199.098 70.9243 199.097 69.5635V62.9236H191.416V69.5635C191.42 72.9711 192.768 76.2379 195.165 78.6477C197.562 81.0576 200.811 82.4137 204.201 82.4189H250.834C254.224 82.4137 257.474 81.0576 259.871 78.6477C262.267 76.2379 263.616 72.9711 263.62 69.5635V55.7817Z" fill="white"/>
<path d="M359.128 89.7729H339.28V97.4939H359.128V89.7729Z" fill="white"/>
<path d="M282.619 89.7729H262.771V97.4939H282.619V89.7729Z" fill="white"/>
<path d="M237.442 55.5886H217.594V63.3095H237.442V55.5886Z" fill="white"/>
<path d="M175.358 53.7148C174.991 49.5849 173.192 45.716 170.275 42.7841C167.358 39.8522 163.509 38.0437 159.401 37.6746C149.218 36.7751 89.8169 36.7751 79.6347 37.6746C75.5257 38.043 71.6763 39.8513 68.7593 42.7833C65.8424 45.7154 64.0434 49.5846 63.6769 53.7148C62.7744 63.9507 62.7744 74.2467 63.6769 84.4826C64.0433 88.616 65.8448 92.4881 68.7658 95.4207C71.6869 98.3533 75.5412 100.159 79.6539 100.523C89.8361 101.426 149.238 101.426 159.42 100.523C163.525 100.15 167.37 98.3399 170.283 95.4083C173.196 92.4766 174.993 88.6097 175.358 84.4826C176.261 74.2467 176.261 63.9507 175.358 53.7148Z" fill="white"/>
<path d="M119.379 83.3018C126.85 83.3018 131.58 79.1472 131.58 70.6781V54.8989H125.459V70.9198C125.459 75.3941 123.234 77.6312 119.458 77.6312C115.683 77.6312 113.457 75.3149 113.457 70.721V54.8989H107.337V70.8781C107.337 79.1472 111.907 83.3018 119.379 83.3018ZM137.82 82.8625H151.054C157.333 82.8625 161.467 80.3057 161.467 75.1925V75.1126C161.467 71.3973 159.48 69.4798 156.26 68.241C157.386 67.7009 158.332 66.8429 158.981 65.7718C159.63 64.7007 159.955 63.4627 159.917 62.2091V62.1292C159.937 61.248 159.779 60.3719 159.451 59.5545C159.123 58.7371 158.632 57.9956 158.009 57.3754C156.379 55.7378 153.955 54.8989 150.736 54.8989H137.82V82.8625ZM153.835 63.2479C153.835 65.3252 152.126 66.2043 149.424 66.2043H143.782V60.292H149.823C152.406 60.292 153.836 61.2907 153.836 63.1684L153.835 63.2479ZM155.386 74.4328C155.386 76.5101 153.756 77.4687 151.054 77.4687H143.782V71.3174H150.856C154.035 71.3174 155.388 72.4756 155.388 74.3533L155.386 74.4328Z" fill="#662D91"/>
<path d="M90.9547 83.3016C96.8808 83.3016 101.041 80.2245 101.041 74.7415V74.6643C101.041 69.8514 97.9013 67.8791 92.3285 66.3801C87.5796 65.1178 86.4024 64.6043 86.4024 62.7513V62.6741C86.4024 61.2932 87.58 60.2679 89.9358 60.2679C92.2917 60.2679 94.606 61.2936 97.0794 62.9899L100.219 58.4137C97.3288 56.0827 93.7193 54.8395 90.0142 54.8988C84.3627 54.8988 80.3988 58.2126 80.3988 63.2223V63.2995C80.3988 68.7427 83.9322 70.3606 89.5037 71.7415C94.0956 72.8854 95.0373 73.7138 95.0373 75.2526V75.3298C95.0373 76.9473 93.5852 77.9333 91.0734 77.9333C87.9337 77.9333 85.3828 76.6316 82.871 74.5801L79.2988 78.8834C82.4993 81.7669 86.657 83.3429 90.9547 83.3016Z" fill="#662D91"/>
<defs>
<filter id="filter0_d_167_36" x="0" y="0" width="460" height="154" filterUnits="userSpaceOnUse" color-interpolation-filters="sRGB">
<feFlood flood-opacity="0" result="BackgroundImageFix"/>
<feColorMatrix in="SourceAlpha" type="matrix" values="0 0 0 0 0 0 0 0 0 0 0 0 0 0 0 0 0 0 127 0" result="hardAlpha"/>
<feOffset dy="4"/>
<feGaussianBlur stdDeviation="2"/>
<feComposite in2="hardAlpha" operator="out"/>
<feColorMatrix type="matrix" values="0 0 0 0 0 0 0 0 0 0 0 0 0 0 0 0 0 0 0.25 0"/>
<feBlend mode="normal" in2="BackgroundImageFix" result="effect1_dropShadow_167_36"/>
<feBlend mode="normal" in="SourceGraphic" in2="effect1_dropShadow_167_36" result="shape"/>
</filter>
</defs>
</svg>
