<svg width="460" height="154" viewBox="0 0 460 154" fill="none" xmlns="http://www.w3.org/2000/svg">
<g filter="url(#filter0_d_167_13)">
<path d="M4 33C4 14.7746 18.7746 0 37 0H423C441.225 0 456 14.7746 456 33V113C456 131.225 441.225 146 423 146H37C18.7746 146 4 131.225 4 113V33Z" fill="#662D91"/>
</g>
<g filter="url(#filter1_d_167_13)">
<path d="M280.128 53.8062V72.2708C280.134 74.4091 279.712 76.5274 278.887 78.503C278.061 80.4785 276.847 82.2721 275.316 83.7796L268.399 90.6326L274.512 96.6933L281.429 89.8403C283.765 87.54 285.618 84.8035 286.879 81.7892C288.141 78.7748 288.786 75.5425 288.779 72.2794V53.8062H280.128Z" fill="white"/>
<path d="M268.702 53.8061H260.056V69.0969C260.055 70.6067 259.449 72.0543 258.372 73.1222C257.295 74.1902 255.834 74.7912 254.311 74.7935H248.6C247.053 74.7912 245.569 74.1813 244.475 73.0974C243.381 72.0135 242.766 70.5441 242.763 69.0113V62.8992C242.759 59.353 241.335 55.9533 238.804 53.4458C236.273 50.9382 232.842 49.5275 229.262 49.5229H209.579C205.999 49.5263 202.567 50.9366 200.035 53.4443C197.503 55.9519 196.078 59.3523 196.074 62.8992V69.0113C196.071 70.5441 195.456 72.0135 194.362 73.0974C193.268 74.1813 191.785 74.7912 190.237 74.7935H184.959C183.435 74.7912 181.974 74.1902 180.897 73.1222C179.82 72.0543 179.215 70.6067 179.214 69.0969V53.8061H170.567V69.0969C170.566 70.6067 169.961 72.0543 168.883 73.1222C167.806 74.1902 166.346 74.7912 164.822 74.7935H152.319V83.3598H164.822C168.589 83.3618 172.205 81.8956 174.89 79.278C177.575 81.8956 181.192 83.3618 184.959 83.3598H190.237C193.9 83.3615 197.427 81.9835 200.103 79.505C202.625 81.9769 206.031 83.3623 209.579 83.3598H229.249C232.799 83.362 236.206 81.9768 238.73 79.505C241.406 81.9864 244.935 83.3648 248.6 83.3598H254.311C258.126 83.3541 261.784 81.8495 264.482 79.1758C267.18 76.5021 268.698 72.8775 268.702 69.0969V53.8061ZM234.117 69.9792C234.116 71.255 233.604 72.4782 232.694 73.3807C231.784 74.2832 230.55 74.7912 229.262 74.7935H209.592C208.953 74.7946 208.32 74.671 207.729 74.4296C207.138 74.1882 206.602 73.8338 206.149 73.3867C205.697 72.9396 205.337 72.4086 205.092 71.8239C204.847 71.2392 204.721 70.6124 204.72 69.9792V62.8992C204.722 61.6235 205.235 60.4007 206.146 59.499C207.057 58.5974 208.292 58.0904 209.579 58.0892H229.262C230.549 58.0915 231.783 58.599 232.693 59.5005C233.603 60.4021 234.115 61.6242 234.117 62.8992V64.5482V69.9792Z" fill="white"/>
<path d="M153.275 53.8062H144.629V69.097C144.627 70.6067 144.022 72.0544 142.945 73.1223C141.868 74.1903 140.407 74.7913 138.883 74.7936H86.3917C84.8679 74.7913 83.4072 74.1903 82.3301 73.1223C81.2529 72.0544 80.6474 70.6067 80.6463 69.097V61.73H72V69.097C72.0046 72.8776 73.5222 76.5021 76.22 79.1758C78.9179 81.8495 82.5758 83.3542 86.3917 83.3598H138.883C142.699 83.3542 146.357 81.8495 149.055 79.1758C151.753 76.5021 153.27 72.8776 153.275 69.097V53.8062Z" fill="white"/>
<path d="M260.782 91.519H238.44V100.085H260.782V91.519Z" fill="white"/>
<path d="M174.661 91.519H152.319V100.085H174.661V91.519Z" fill="white"/>
<path d="M123.808 53.592H101.466V62.1583H123.808V53.592Z" fill="white"/>
<path d="M353.47 57.9866H343.959V71.6926H353.47C354.32 71.6975 355.162 71.5192 355.936 71.1702C356.71 70.8211 357.398 70.3096 357.953 69.671C359.193 68.3489 359.866 66.6012 359.829 64.7968C359.869 63.0033 359.195 61.2662 357.953 59.9611C357.392 59.3333 356.701 58.8322 355.928 58.4915C355.154 58.1509 354.316 57.9787 353.47 57.9866Z" fill="white"/>
<path d="M387.238 55.5449C386.825 50.9629 384.8 46.6704 381.516 43.4175C378.233 40.1645 373.9 38.158 369.276 37.7485C357.814 36.7505 346.286 36.7505 334.825 37.7485C330.199 38.1572 325.866 40.1635 322.583 43.4165C319.3 46.6696 317.275 50.9626 316.862 55.5449C315.846 66.9016 315.846 78.325 316.862 89.6816C317.274 94.2676 319.302 98.5637 322.59 101.817C325.878 105.071 330.217 107.075 334.846 107.478C346.308 108.48 357.836 108.48 369.297 107.478C373.918 107.065 378.246 105.056 381.525 101.804C384.805 98.551 386.826 94.2606 387.238 89.6816C388.254 78.325 388.254 66.9016 387.238 55.5449ZM360.435 95.8065L350.971 79.7019H343.972V95.8065H334.738V49.42H353.47C355.523 49.3835 357.562 49.7645 359.46 50.5395C361.358 51.3146 363.076 52.4671 364.507 53.9259C365.975 55.3337 367.137 57.0245 367.92 58.8942C368.702 60.7638 369.09 62.7726 369.059 64.7965C369.066 67.6472 368.203 70.4332 366.582 72.7889C364.968 75.2075 362.696 77.1244 360.028 78.3184L370.404 95.8151L360.435 95.8065Z" fill="white"/>
</g>
<defs>
<filter id="filter0_d_167_13" x="0" y="0" width="460" height="154" filterUnits="userSpaceOnUse" color-interpolation-filters="sRGB">
<feFlood flood-opacity="0" result="BackgroundImageFix"/>
<feColorMatrix in="SourceAlpha" type="matrix" values="0 0 0 0 0 0 0 0 0 0 0 0 0 0 0 0 0 0 127 0" result="hardAlpha"/>
<feOffset dy="4"/>
<feGaussianBlur stdDeviation="2"/>
<feComposite in2="hardAlpha" operator="out"/>
<feColorMatrix type="matrix" values="0 0 0 0 0 0 0 0 0 0 0 0 0 0 0 0 0 0 0.25 0"/>
<feBlend mode="normal" in2="BackgroundImageFix" result="effect1_dropShadow_167_13"/>
<feBlend mode="normal" in="SourceGraphic" in2="effect1_dropShadow_167_13" result="shape"/>
</filter>
<filter id="filter1_d_167_13" x="68" y="37" width="324" height="79.2297" filterUnits="userSpaceOnUse" color-interpolation-filters="sRGB">
<feFlood flood-opacity="0" result="BackgroundImageFix"/>
<feColorMatrix in="SourceAlpha" type="matrix" values="0 0 0 0 0 0 0 0 0 0 0 0 0 0 0 0 0 0 127 0" result="hardAlpha"/>
<feOffset dy="4"/>
<feGaussianBlur stdDeviation="2"/>
<feComposite in2="hardAlpha" operator="out"/>
<feColorMatrix type="matrix" values="0 0 0 0 0 0 0 0 0 0 0 0 0 0 0 0 0 0 0.25 0"/>
<feBlend mode="normal" in2="BackgroundImageFix" result="effect1_dropShadow_167_13"/>
<feBlend mode="normal" in="SourceGraphic" in2="effect1_dropShadow_167_13" result="shape"/>
</filter>
</defs>
</svg>
