<?xml version="1.0" encoding="UTF-8"?>
<svg id="Layer_2" data-name="Layer 2" xmlns="http://www.w3.org/2000/svg" viewBox="0 0 61.05 76.05">
  <defs>
    <style>
      .cls-1 {
        fill: #662d91;
      }
    </style>
  </defs>
  <g id="Layer_1-2" data-name="Layer 1">
    <path class="cls-1" d="m61.05,52.39c0,3.38-.7,6.58-2.11,9.61-1.34,2.96-3.35,5.53-6.02,7.71-5.07,4.22-11.62,6.34-19.65,6.34-2.32,0-4.82-.18-7.5-.53.99-1.2,1.48-2.57,1.48-4.12,0-2.04-.69-3.8-2.06-5.28-1.37-1.48-3.12-2.6-5.23-3.38-1.34-.56-2.78-.85-4.33-.85-2.47,0-4.19.92-5.18,2.75-.35.63-.53,1.34-.53,2.11,0,1.2.46,2.36,1.37,3.49-2.53-1.55-4.61-2.99-6.23-4.33l.21-.63c0-.14.07-.35.21-.63.07.07.21.11.42.11.56-.14.85-.42.85-.85,0-.35-.11-.63-.32-.84v-.21c1.41-2.04,3.52-3.34,6.34-3.91,1.27-.14,2.15-.21,2.64-.21.7,0,1.23.04,1.58.11v.11c.07.21.25.25.53.11,0,.21.14.39.42.53h.21c.28,0,.56-.14.85-.42,1.48.28,3.03.78,4.65,1.48.21.07.37,0,.48-.21s.05-.35-.16-.42c-.42-.14-1.13-.39-2.11-.74-.99-.35-1.87-.6-2.64-.74v-.11c-.07-.28-.23-.53-.48-.74-.25-.21-.55-.28-.9-.21-.42,0-.7.25-.84.74-.42-.07-1.02-.11-1.8-.11-1.55,0-2.99.21-4.33.63-2.11.78-3.8,2.01-5.07,3.7h-.21c-.35,0-.63.11-.84.32-.42.28-.56.63-.42,1.06.21.21.35.32.42.32l.11.21c-.21.63-.32.99-.32,1.06l-1.16-.95-3.38-3.17,12.89-15.42,3.7,3.17c2.89,2.47,5.74,4.3,8.56,5.49h.11c2.75,1.2,5.53,1.8,8.34,1.8,2.32,0,4.12-.46,5.39-1.37.77-.49,1.16-1.16,1.16-2.01,0-.77-.32-1.37-.95-1.8-1.2-1.06-3.94-2.08-8.24-3.06-4.86-1.12-8.63-2.22-11.3-3.27-2.68-1.06-5.25-2.53-7.71-4.44-2.53-1.9-4.47-4.37-5.81-7.39-1.2-2.82-1.8-6.02-1.8-9.61,0-.84.07-1.97.21-3.38,2.11-.14,4.47-.49,7.08-1.06.7,1.13,1.64,2.01,2.8,2.64,1.16.63,2.45.95,3.85.95,1.9,0,3.57-.62,5.02-1.85,1.44-1.23,2.31-2.83,2.59-4.81l.11-.11v-.85c2.75-.98,4.89-1.88,6.44-2.69,1.55-.81,2.29-1.46,2.22-1.95l-.32-.32v-.11h-.11v-.11h-.11v-.11h-.21l-.11-.11h-.32l-.11-.11h-2.64c-.07.07-.18.11-.32.11-1.41.07-3.35.35-5.81.85-.99-1.34-2.08-2.29-3.27-2.85l-.32-.11-.11-.11h-.21v-.11h-.32v-.11h-.21c-.07,0-.11-.04-.11-.11h-.42v-.11h-.63v-.11h-2.11v.11h-.63v.11h-.42v.11h-.21l-.11.11h-.21l-.21.11h-.11l-.11.11h-.11l-.11.11h-.21v.11h-.11l-.11.11h-.11l-.11.11h-.11v.11c-.07,0-.18.07-.32.21h-.11l-.11.11-.21.11-.11.11-.21.11v.11l-.11.11-.21.11c-1.34,1.34-2.11,2.99-2.32,4.96v.53c-2.53.99-4.16,1.66-4.86,2.01.14-.85.49-1.8,1.06-2.85,1.34-3.03,3.45-5.6,6.34-7.71C17.92,1.94,24.22,0,31.69,0c4.51,0,9.08.78,13.73,2.32,4.65,1.48,8.62,3.66,11.94,6.55l3.49,2.85-11.62,16.27-3.91-3.7c-1.76-1.34-3.8-2.39-6.13-3.17-2.32-.91-4.96-1.37-7.92-1.37-2.4,0-4.12.39-5.18,1.16h-.11c-.42.28-.63.85-.63,1.69s.28,1.48.84,1.9h.11c.91.92,4.65,2.18,11.2,3.8,7.18,1.76,12.82,4.3,16.9,7.6v.11c4.44,3.8,6.65,9.26,6.65,16.37Zm-45.52,19.96c-.7-.28-1.23-.53-1.58-.74-1.41-.77-2.39-1.87-2.96-3.27-.21-.63-.32-1.2-.32-1.69,0-1.27.54-2.25,1.64-2.96,1.09-.7,2.34-1.06,3.75-1.06.7,0,1.2.04,1.48.11,3.45.78,5.98,2.25,7.6,4.44.99,1.2,1.48,2.61,1.48,4.23s-.53,2.85-1.58,3.91c-2.61-.49-4.82-1.09-6.65-1.79,1.41.14,2.59.02,3.54-.37.95-.39,1.43-1.11,1.43-2.17,0-.42-.04-.74-.11-.95l-.32-.53.11-.21c0-.42-.11-.74-.32-.95-.28-.21-.53-.25-.74-.11-.63-.63-1.39-1.18-2.27-1.64-.88-.46-1.67-.69-2.38-.69-1.06,0-1.73.46-2.01,1.37-.07.21-.02.37.16.48.17.11.3.05.37-.16.14-.28.44-.51.9-.69.46-.17.83-.23,1.11-.16l1.06.32c.91.21,1.69.63,2.32,1.27l.21.11c-.14.14-.21.35-.21.63-.07.07-.11.21-.11.42.07.35.25.58.53.69.28.11.56.09.84-.05v.32c0,.14-.07.49-.21,1.06-.49.99-1.58,1.48-3.27,1.48-1.2,0-2.36-.21-3.49-.63ZM39.61,11.2c.07.07.14.11.21.11l2.75-.32,1.8,2.01c.07.07.16.11.26.11s.16-.07.16-.21l.42-2.64,2.43-1.06c.14,0,.19-.05.16-.16-.04-.11-.09-.19-.16-.26-.21-.14-.99-.6-2.32-1.37l-.11-2.54c0-.21-.07-.32-.21-.32-.07,0-.18.07-.32.21l-1.9,1.69-2.64-.63c-.07-.07-.14-.05-.21.05-.07.11-.07.19,0,.26.42,1.13.77,1.94,1.06,2.43l-1.37,2.43c-.07.07-.07.14,0,.21Zm8.71,5.54c.11-.11.12-.19.05-.26l-.11-.21-2.32-2.53c-.07-.07-.16-.09-.26-.05-.11.04-.16.09-.16.16l.11.32c1.62,1.83,2.39,2.71,2.32,2.64.14.07.26.05.37-.05Zm4.96,2.22c.03-.11.02-.19-.05-.26l-6.55-7.39c-.07-.07-.18-.11-.32-.11-.07,0-.12.05-.16.16-.04.11-.02.2.05.26l6.44,7.18.32.32c.14,0,.23-.05.26-.16Zm-5.02-8.19l3.8,4.12c.07.07.18.09.32.05.14-.04.18-.12.11-.26l-3.8-4.22c0-.14-.11-.21-.32-.21-.21.07-.25.25-.11.53Z"/>
  </g>
</svg>