<?xml version="1.0" encoding="UTF-8"?>
<svg id="Layer_2" data-name="Layer 2" xmlns="http://www.w3.org/2000/svg" viewBox="0 0 210.31 51.84">
  <defs>
    <style>
      .cls-1 {
        fill: #662d91;
      }
    </style>
  </defs>
  <g id="Layer_1-2" data-name="Layer 1">
    <g>
      <path class="cls-1" d="m41.62,35.71c0,2.3-.48,4.49-1.44,6.55-.91,2.02-2.28,3.77-4.1,5.26-3.46,2.88-7.92,4.32-13.39,4.32-1.58,0-3.29-.12-5.11-.36.67-.82,1.01-1.75,1.01-2.81,0-1.39-.47-2.59-1.4-3.6-.94-1.01-2.12-1.78-3.56-2.3-.91-.38-1.9-.58-2.95-.58-1.68,0-2.86.62-3.53,1.87-.24.43-.36.91-.36,1.44,0,.82.31,1.61.94,2.38-1.73-1.06-3.14-2.04-4.25-2.95l.14-.43c0-.1.05-.24.14-.43.05.05.14.07.29.07.38-.1.58-.29.58-.58,0-.24-.07-.43-.22-.58v-.14c.96-1.39,2.4-2.28,4.32-2.66.86-.1,1.46-.14,1.8-.14.48,0,.84.02,1.08.07v.07c.05.14.17.17.36.07,0,.14.1.26.29.36h.14c.19,0,.38-.1.58-.29,1.01.19,2.06.53,3.17,1.01.14.05.25,0,.32-.14s.04-.24-.11-.29c-.29-.1-.77-.26-1.44-.5-.67-.24-1.27-.41-1.8-.5v-.07c-.05-.19-.16-.36-.32-.5-.17-.14-.37-.19-.61-.14-.29,0-.48.17-.58.5-.29-.05-.7-.07-1.22-.07-1.06,0-2.04.14-2.95.43-1.44.53-2.59,1.37-3.46,2.52h-.14c-.24,0-.43.07-.58.22-.29.19-.38.43-.29.72.14.14.24.22.29.22l.07.14c-.14.43-.22.67-.22.72l-.79-.65-2.3-2.16,8.78-10.51,2.52,2.16c1.97,1.68,3.91,2.93,5.83,3.74h.07c1.87.82,3.77,1.22,5.69,1.22,1.58,0,2.81-.31,3.67-.94.53-.33.79-.79.79-1.37,0-.53-.22-.94-.65-1.22-.82-.72-2.69-1.42-5.62-2.09-3.31-.77-5.88-1.51-7.7-2.23-1.83-.72-3.58-1.73-5.26-3.02-1.73-1.3-3.05-2.98-3.96-5.04-.82-1.92-1.22-4.1-1.22-6.55,0-.58.05-1.34.14-2.3,1.44-.1,3.05-.33,4.82-.72.48.77,1.12,1.37,1.91,1.8.79.43,1.67.65,2.63.65,1.3,0,2.44-.42,3.42-1.26.98-.84,1.57-1.93,1.76-3.28l.07-.07v-.58c1.87-.67,3.34-1.28,4.39-1.84,1.05-.55,1.56-1,1.51-1.33l-.22-.22v-.07h-.07v-.07h-.07v-.07h-.14l-.07-.07h-.22l-.07-.07h-1.8s-.12.07-.22.07c-.96.05-2.28.24-3.96.58-.67-.91-1.42-1.56-2.23-1.94l-.22-.07-.07-.07h-.14v-.07h-.22v-.07h-.14s-.07-.02-.07-.07h-.29v-.07h-.43v-.07h-1.44v.07h-.43v.07h-.29v.07h-.14l-.07.07h-.14l-.14.07h-.07l-.07.07h-.07l-.07.07h-.14v.07h-.07l-.07.07h-.07l-.07.07h-.07v.07s-.12.05-.22.14h-.07l-.07.07-.14.07-.07.07-.14.07v.07l-.07.07-.14.07c-.91.91-1.44,2.04-1.58,3.38v.36c-1.73.67-2.83,1.13-3.31,1.37.1-.58.34-1.22.72-1.94.91-2.06,2.35-3.82,4.32-5.26,3.5-2.64,7.8-3.96,12.89-3.96,3.07,0,6.19.53,9.36,1.58,3.17,1.01,5.88,2.5,8.14,4.46l2.38,1.94-7.92,11.09-2.66-2.52c-1.2-.91-2.59-1.63-4.18-2.16-1.58-.62-3.38-.94-5.4-.94-1.63,0-2.81.26-3.53.79h-.07c-.29.19-.43.58-.43,1.15s.19,1.01.58,1.3h.07c.62.62,3.17,1.49,7.63,2.59,4.9,1.2,8.74,2.93,11.52,5.18v.07c3.02,2.59,4.54,6.31,4.54,11.16Zm-31.03,13.61c-.48-.19-.84-.36-1.08-.5-.96-.53-1.63-1.27-2.02-2.23-.14-.43-.22-.82-.22-1.15,0-.86.37-1.54,1.12-2.02.74-.48,1.59-.72,2.56-.72.48,0,.82.02,1.01.07,2.35.53,4.08,1.54,5.18,3.02.67.82,1.01,1.78,1.01,2.88s-.36,1.94-1.08,2.66c-1.78-.33-3.29-.74-4.54-1.22.96.1,1.76.01,2.41-.25.65-.26.97-.76.97-1.48,0-.29-.02-.5-.07-.65l-.22-.36.07-.14c0-.29-.07-.5-.22-.65-.19-.14-.36-.17-.5-.07-.43-.43-.95-.8-1.55-1.12-.6-.31-1.14-.47-1.62-.47-.72,0-1.18.31-1.37.94-.05.14-.01.25.11.32.12.07.2.04.25-.11.09-.19.3-.35.61-.47.31-.12.56-.16.76-.11l.72.22c.62.14,1.15.43,1.58.86l.14.07c-.1.1-.14.24-.14.43-.05.05-.07.14-.07.29.05.24.17.4.36.47.19.07.38.06.58-.04v.22c0,.1-.05.34-.14.72-.34.67-1.08,1.01-2.23,1.01-.82,0-1.61-.14-2.38-.43ZM27,7.63s.1.07.14.07l1.87-.22,1.22,1.37s.11.07.18.07.11-.05.11-.14l.29-1.8,1.66-.72c.1,0,.13-.04.11-.11-.02-.07-.06-.13-.11-.18-.14-.1-.67-.41-1.58-.94l-.07-1.73c0-.14-.05-.22-.14-.22-.05,0-.12.05-.22.14l-1.3,1.15-1.8-.43s-.1-.04-.14.04c-.05.07-.05.13,0,.18.29.77.53,1.32.72,1.66l-.94,1.66s-.05.1,0,.14Zm5.94,3.78c.07-.07.08-.13.04-.18l-.07-.14-1.58-1.73s-.11-.06-.18-.04c-.07.02-.11.06-.11.11l.07.22c1.1,1.25,1.63,1.85,1.58,1.8.1.05.18.04.25-.04Zm3.38,1.51c.02-.07.01-.13-.04-.18l-4.46-5.04s-.12-.07-.22-.07c-.05,0-.08.04-.11.11-.02.07-.01.13.04.18l4.39,4.9.22.22c.1,0,.16-.04.18-.11Zm-3.42-5.58l2.59,2.81s.12.06.22.04c.1-.02.12-.08.07-.18l-2.59-2.88c0-.1-.07-.14-.22-.14-.14.05-.17.17-.07.36Z"/>
      <path class="cls-1" d="m54.25,49.07c-.94.55-1.72,1.24-2.34,2.05h-10.66L59.62.72h13.39l18.22,50.4h-10.94c-1.2-1.68-2.83-2.66-4.9-2.95l-2.23-7.27h-2.81l.07-.07.07-.5h.79c.19-.34.43-.89.72-1.66h2.74c.53-1.2.79-2.5.79-3.89,0-1.06-.17-2.03-.5-2.92-.34-.89-.82-1.6-1.44-2.12h-.07l-.29-.22-.07-.07c-.14-1.63-.53-3.36-1.15-5.18l-.36-.86-.07-.14-.36-.86-.07-.14-.5-.79-.07-.14-.5-.79v-.07l-.58-.72-.07-.07-.58-.72-.14-.07-.65-.65-.07-.07-.72-.58-.14-.07c-.14-.14-.41-.31-.79-.5l-.79.5-.14.07-.65.58-.14.07-.65.65-.14.07-.58.72-.07.07-.58.72v.07l-.5.79-.07.14-.43.79-.14.14c-.05.19-.17.48-.36.86l-.07.14c-.05.19-.17.48-.36.86-.53,1.49-.91,3.22-1.15,5.18l-.07.07-.29.22c-.62.53-1.1,1.25-1.44,2.16-.34.91-.5,1.9-.5,2.95,0,1.39.24,2.66.72,3.82h2.74c.29.77.53,1.32.72,1.66h.79l.14.5v.07h-2.81l-2.23,7.2c-1.06.1-2.05.42-2.99.97Zm5.72-41.51h.07c.53,0,.98.53,1.37,1.58v-.14c0-.33.05-.71.14-1.12.1-.41.29-.64.58-.68h-.14c-.48,0-.86-.29-1.15-.86-.05.72-.34,1.13-.86,1.22Zm2.23-4.1h.14c.43,0,.84.53,1.22,1.58,0-1.25.24-1.92.72-2.02h-.14c-.43,0-.82-.29-1.15-.86-.05.72-.31,1.15-.79,1.3Zm2.59,5.4c.33-.05.67.12,1.01.5.33.38.62.89.86,1.51,0-.67.07-1.26.22-1.76.14-.5.38-.78.72-.83h-.22c-.53,0-1.01-.38-1.44-1.15-.1,1.01-.48,1.58-1.15,1.73Zm2.45-4.18h.07c.48,0,.94.53,1.37,1.58v-.14c0-1.15.22-1.78.65-1.87h-.14c-.43,0-.79-.26-1.08-.79-.05.72-.34,1.13-.86,1.22Zm3.67,3.67c.58-.1,1.08.46,1.51,1.66.05-1.3.31-1.99.79-2.09h-.14c-.43,0-.84-.31-1.22-.94-.05.82-.36,1.27-.94,1.37Z"/>
      <path class="cls-1" d="m112.75,28.01l.58,23.11h-14.62v-23.11L81.14.72l17.86.07,6.34,13.97,5.76-13.9h17.42l-15.77,27.14Zm-20.3-18.86l2.52,1.66c.1.1.18.1.25,0,.07-.1.08-.19.04-.29v-.07c-.19-1.06-.7-2.16-1.51-3.31-.05-.05.17-.53.65-1.44.1-.38.14-.62.14-.72.14-.24.17-.43.07-.58l-.29-.14c-.62,0-1.3.31-2.02.94-.53-.67-1.18-1.27-1.94-1.8h-.14c-.05-.1-.12-.12-.22-.07-.1.05-.12.12-.07.22,0,.58.14,1.44.43,2.59-1.1.1-2.09.34-2.95.72-.1.05-.14.11-.14.18s.05.13.14.18h.07c.24.19.65.34,1.22.43l1.94.58c.19,1.44.36,2.52.5,3.24v.29c.05.1.12.14.22.14s.17-.05.22-.14c.1-.38.19-.67.29-.86l.58-1.73Zm3.92,8.68c.12-.07.16-.18.11-.32-.96-2.02-1.99-3.77-3.1-5.26-.05-.1-.12-.1-.22,0s-.12.19-.07.29c1.15,1.63,2.16,3.36,3.02,5.18.05.14.13.18.25.11Zm.68-2.3c.14-.07.17-.16.07-.25l-2.16-3.38c-.05-.14-.16-.18-.32-.11-.17.07-.21.16-.11.25l2.16,3.46c.1.1.22.11.36.04Zm-2.23-9.9c-.1.1-.1.19,0,.29,1.97,1.97,3.82,4.22,5.54,6.77.1.14.2.18.32.11.12-.07.13-.18.04-.32-1.83-2.74-3.7-5.02-5.62-6.84-.1-.1-.19-.1-.29,0Zm6.62,11.56c.14-.07.19-.18.14-.32-1.44-2.88-3.17-5.62-5.18-8.21-.1-.1-.21-.08-.32.04-.12.12-.13.23-.04.32,2.11,2.64,3.82,5.33,5.11,8.06.05.14.14.18.29.11Zm-1.3.07c.14-.07.17-.18.07-.32-1.54-2.5-2.71-4.37-3.53-5.62-.1-.1-.21-.11-.32-.04-.12.07-.13.16-.04.25.96,1.39,2.11,3.26,3.46,5.62.1.14.22.18.36.11Zm-.29,3.46c.14-.07.19-.16.14-.25-.67-1.34-1.2-2.33-1.58-2.95-.05-.1-.13-.11-.25-.04-.12.07-.16.16-.11.25.62,1.01,1.13,1.97,1.51,2.88.05.14.14.18.29.11Zm2.81,1.66c.14-.07.19-.18.14-.32-.38-.67-.77-1.49-1.15-2.45-.05-.1-.13-.11-.25-.04-.12.07-.16.16-.11.25l1.08,2.45c.05.14.14.18.29.11Zm1.26-4.32c.12-.07.13-.16.04-.25-.29-.77-.67-1.42-1.15-1.94-.05-.14-.12-.17-.22-.07s-.12.22-.07.36c.48.62.84,1.25,1.08,1.87.1.1.2.11.32.04Z"/>
      <path class="cls-1" d="m164.95,39.1v12.02h-33.55V.72h33.48v12.02h-19.01v8.35h14.47v9.94h-14.47v8.06h19.08Zm-30.96-30.38c.77.86,1.3,1.54,1.58,2.02-.19,1.01-.53,2.06-1.01,3.17l-.5,1.58c1.63-.67,2.86-1.15,3.67-1.44.1-.05.26-.07.5-.07s.43.05.58.14c.43.24,1.03.65,1.8,1.22l1.73,1.3c-.1-2.02-.14-3.53-.14-4.54l3.96-2.95c-2.02-.48-3.5-.86-4.46-1.15-.58-1.73-1.06-3.26-1.44-4.61-.48.62-1.15,1.61-2.02,2.95-.43.62-.86.94-1.3.94-.53.05-1,.06-1.4.04-.41-.02-.76-.04-1.04-.04-.38-.05-.96-.07-1.73-.07.24.34.65.84,1.22,1.51Zm1.66,8.93c-.62,0-1.08.02-1.37.07l1.44,2.02c-.05.38-.16.86-.32,1.44-.17.58-.3,1.03-.4,1.37.77-.34,1.61-.65,2.52-.94.48.34.91.65,1.3.94.38.29.72.53,1.01.72,0-1.2-.02-2.09-.07-2.66,1.05-.77,1.85-1.37,2.38-1.8l-2.59-.65c-.38-1.15-.7-2.02-.94-2.59-.67.86-1.2,1.51-1.58,1.94-.29.1-.75.14-1.37.14Zm.29,9.36c-.34.86-.6,1.63-.79,2.3.24-.1.58-.23,1.01-.4.43-.17.82-.25,1.15-.25.33.14.71.36,1.12.65.41.29.71.5.9.65l-.07-2.23c.86-.67,1.51-1.2,1.94-1.58l-2.16-.5c-.1-.38-.36-1.22-.79-2.52-.1.14-.55.82-1.37,2.02h-2.52l1.58,1.87Zm.79,7.42h.29c.43,0,1.08.14,1.94.43.29-.91.7-1.66,1.22-2.23-.77-.43-1.34-1.06-1.73-1.87-.67.77-1.51,1.15-2.52,1.15.53.82.79,1.66.79,2.52Zm1.58,4.46c.62,0,1.27.07,1.94.22.38-.77.7-1.34.94-1.73-.34-.24-.79-.65-1.37-1.22l-1.66.86c.1.77.14,1.39.14,1.87Zm4.18,2.09l-1.08-1.01-1.15.5c0,.67.02,1.2.07,1.58,1.1,0,1.82-.36,2.16-1.08Z"/>
      <path class="cls-1" d="m209.3,7.34c.05-.14.07-.38.07-.72,0-.43-.12-.94-.36-1.51l-.07-.14v-.07l-.07-.07v-.07h-.07v-.14h-.07v-.07h-.07v-.07l-.07-.07v-.07h-.07v-.07h-.07v-.07h-.07v-.07l-.07-.07-.07-.07-.07-.07v-.07h-.07l-.07-.07h-.07v-.07h-.07v-.07h-.07s-.02-.07-.07-.07h-.07v-.07h-.07s-.02-.07-.07-.07h-.07v-.07h-.07l-.07-.07h-.07l-.07-.07h-.07l-.07-.07h-.07l-.07-.07h-.07l-.14-.07h-.14l-.07-.07h-.29l-.07-.07h-.94c-1.01.1-1.85.48-2.52,1.15l-.22.22c-1.39-.53-2.53-.88-3.42-1.04-.89-.17-1.38-.16-1.48.04-.1,0-.1.05,0,.14v.07c-.1.19.22.56.94,1.12.72.55,1.73,1.19,3.02,1.91-.1.58-.04,1.18.18,1.8.22.62.54,1.15.97,1.58.77.77,1.7,1.15,2.81,1.15.96,0,1.85-.34,2.66-1.01,0-.05.02-.07.07-.07l.07-.07.22-.22,1.87.65v40.9h-3.89c1.34-1.49,2.02-3.24,2.02-5.26,0-1.06-.21-2.08-.61-3.06-.41-.98-1.02-1.84-1.84-2.56-.19-.19-.88.17-2.05,1.08-1.18.91-2.51,2.14-4,3.67l-.65-.58c.1-.14.14-.34.14-.58,0-.34-.1-.6-.29-.79-.05,0-.07-.02-.07-.07h-.07l-.07-.07h-.07l-.07-.07h-.22v-.07h-.29c-.29.1-.5.22-.65.36-.19.29-.29.53-.29.72,0,.24.12.48.36.72.19.19.41.3.65.32.24.02.46-.04.65-.18l.72.65c-1.44,1.44-2.69,2.93-3.74,4.46v-15.7h-13.9v16.99h-14.26V.72h1.51c-.24.34-.5.5-.79.5.53,0,.89.62,1.08,1.87.29-1.25.67-1.87,1.15-1.87-.19,0-.46-.17-.79-.5h12.1v9.58c-.34-.29-.58-.67-.72-1.15-.24.96-.7,1.44-1.37,1.44.34,0,.62.23.86.68.24.46.41,1.02.5,1.69.14-.91.38-1.58.72-2.02v8.42h13.9V.72h14.33v7.13l-1.01-.5Zm-38.88,7.92c-.48,0-.82-.36-1.01-1.08-.24.72-.6,1.08-1.08,1.08.48,0,.84.6,1.08,1.8.19-1.2.53-1.8,1.01-1.8Zm.94-7.16c.24-.46.53-.68.86-.68-.62,0-1.11-.48-1.44-1.44-.24.96-.7,1.44-1.37,1.44.34,0,.62.23.86.68.24.46.41,1,.5,1.62.14-.62.33-1.16.58-1.62Zm3.31-4.28c-.48,0-.84-.36-1.08-1.08-.19.72-.55,1.08-1.08,1.08.53,0,.89.6,1.08,1.8.24-1.2.6-1.8,1.08-1.8Zm.79,4.25c.53,0,.89.65,1.08,1.94.29-1.3.67-1.94,1.15-1.94-.48,0-.86-.36-1.15-1.08-.19.72-.55,1.08-1.08,1.08Zm2.74,6.12c-.48,0-.86-.36-1.15-1.08-.19.72-.58,1.08-1.15,1.08.58,0,.96.65,1.15,1.94.29-1.3.67-1.94,1.15-1.94Zm1.8-11.3c-.48,0-.86-.38-1.15-1.15-.19.77-.58,1.15-1.15,1.15.53,0,.91.65,1.15,1.94.24-1.3.62-1.94,1.15-1.94Z"/>
    </g>
  </g>
</svg>