<svg width="187" height="47" viewBox="0 0 187 47" fill="none" xmlns="http://www.w3.org/2000/svg">
<path d="M36.9214 32.376C36.9214 34.4612 36.4954 36.4468 35.6433 38.3144C34.8357 40.1458 33.6198 41.7324 32.0045 43.0833C28.9336 45.6944 24.9752 47 20.1204 47C18.7181 47 17.2004 46.8912 15.5851 46.6736C16.1797 45.9302 16.4815 45.087 16.4815 44.126C16.4815 42.8657 16.0644 41.7778 15.2389 40.8621C14.4047 39.9464 13.3574 39.2483 12.0793 38.7768C11.2717 38.4323 10.393 38.251 9.46111 38.251C7.97005 38.251 6.92276 38.8131 6.32811 39.9464C6.11511 40.3362 6.0086 40.7714 6.0086 41.2519C6.0086 41.9954 6.28374 42.7116 6.84288 43.4097C5.30745 42.4487 4.05603 41.5602 3.07087 40.7351L3.19512 40.3453C3.19512 40.2546 3.2395 40.1277 3.31937 39.9554C3.36375 40.0008 3.44363 40.0189 3.57676 40.0189C3.91402 39.9282 4.09153 39.756 4.09153 39.4931C4.09153 39.2755 4.0294 39.1032 3.89627 38.9672V38.8403C4.7483 37.5801 6.02635 36.7731 7.73041 36.4286C8.49369 36.338 9.02621 36.3017 9.32798 36.3017C9.75399 36.3017 10.0735 36.3198 10.2865 36.3652V36.4286C10.3309 36.5556 10.4374 36.5828 10.606 36.4921C10.606 36.619 10.6948 36.7278 10.8634 36.8185H10.9877C11.1563 36.8185 11.3249 36.7278 11.5024 36.5556C12.3988 36.7278 13.3308 37.0361 14.3159 37.4713C14.4402 37.5166 14.5378 37.4713 14.5999 37.3443C14.6621 37.2174 14.6354 37.1267 14.5023 37.0814C14.2449 36.9907 13.8189 36.8457 13.2242 36.6281C12.6296 36.4105 12.0971 36.2564 11.6267 36.1748V36.1113C11.5823 35.939 11.4847 35.7849 11.3427 35.658C11.1918 35.5311 11.0143 35.4857 10.8013 35.5311C10.5439 35.5311 10.3753 35.6852 10.2865 35.9844C10.0291 35.939 9.66524 35.9209 9.20372 35.9209C8.26294 35.9209 7.39315 36.0478 6.5855 36.3108C5.30745 36.7913 4.28679 37.5529 3.51463 38.5955H3.39038C3.17737 38.5955 3.00874 38.659 2.87561 38.7949C2.61822 38.9672 2.53835 39.1848 2.61822 39.4477C2.74248 39.5747 2.83123 39.6472 2.87561 39.6472L2.93774 39.7741C2.81348 40.164 2.74248 40.3816 2.74248 40.4269L2.04133 39.8376L0 37.8792L7.79254 28.3505L10.0291 30.3088C11.7776 31.832 13.4994 32.9653 15.2034 33.6997H15.2656C16.9253 34.4431 18.6116 34.8057 20.3156 34.8057C21.7179 34.8057 22.8096 34.5247 23.5729 33.9535C24.0433 33.6543 24.274 33.2373 24.274 32.7114C24.274 32.2309 24.0788 31.8592 23.6971 31.6053C22.9694 30.9525 21.3097 30.3179 18.7092 29.7105C15.7715 29.0123 13.4905 28.3414 11.8752 27.6887C10.251 27.0359 8.69783 26.1202 7.20677 24.9506C5.67134 23.772 4.49979 22.2488 3.69214 20.3812C2.96436 18.6404 2.60935 16.664 2.60935 14.4427C2.60935 13.9169 2.65372 13.2278 2.7336 12.3574C4.01165 12.2668 5.44058 12.0583 7.01151 11.7047C7.43753 12.4028 8.00555 12.9468 8.7067 13.3366C9.40785 13.7265 10.1889 13.9259 11.0409 13.9259C12.1947 13.9259 13.2065 13.5451 14.0763 12.7836C14.9461 12.022 15.4697 11.0338 15.6383 9.8098L15.7005 9.74634V9.22049C17.3602 8.61304 18.6648 8.05999 19.5967 7.55228C20.5286 7.05363 20.9813 6.64564 20.9369 6.34645L20.7417 6.14699V6.08353H20.6795V6.02006H20.6174V5.9566H20.4931L20.431 5.89313H20.2358L20.1736 5.82967H18.5761C18.5761 5.82967 18.4696 5.89313 18.3808 5.89313C17.5288 5.93846 16.3572 6.11073 14.8662 6.41898C14.2715 5.59394 13.6059 5.00463 12.887 4.66011L12.6917 4.59664L12.6296 4.53318H12.5053V4.46971H12.3101V4.40625H12.1858C12.1858 4.40625 12.1237 4.38812 12.1237 4.34279H11.8663V4.27932H11.4847V4.21586H10.2066V4.27932H9.82499V4.34279H9.56761V4.40625H9.44335L9.38123 4.46971H9.25697L9.13272 4.53318H9.07059L9.00846 4.59664H8.94634L8.88421 4.66011H8.75995V4.72357H8.69783L8.6357 4.78704H8.57357L8.51144 4.8505H8.44932V4.91397C8.44932 4.91397 8.34281 4.9593 8.25406 5.04089H8.19193L8.12981 5.10436L8.00555 5.16782L7.94342 5.23129L7.81917 5.29475V5.35822L7.75704 5.42168L7.63279 5.48515C6.82513 6.31019 6.35474 7.33468 6.23048 8.54958V8.87597C4.69505 9.48341 3.71876 9.90046 3.29275 10.1181C3.3815 9.59221 3.59451 9.01196 3.93177 8.35918C4.73943 6.49151 6.01748 4.89583 7.76592 3.59028C10.8723 1.19676 14.6887 0 19.2062 0C21.9309 0 24.7001 0.480517 27.5135 1.43248C30.327 2.34819 32.7322 3.69907 34.7381 5.47608L36.8504 7.23495L29.8211 17.2895L27.4603 15.0048C26.3952 14.1798 25.1616 13.527 23.7504 13.0465C22.3481 12.4844 20.7505 12.1943 18.9577 12.1943C17.511 12.1943 16.4637 12.43 15.8247 12.9105H15.7626C15.5052 13.0828 15.381 13.4363 15.381 13.9531C15.381 14.4699 15.5496 14.8688 15.8957 15.1318H15.9578C16.5081 15.6939 18.7713 16.4826 22.7297 17.4799C27.0786 18.5679 30.4868 20.1364 32.9541 22.1763V22.2398C35.6345 24.588 36.9835 27.9606 36.9835 32.3578L36.9214 32.376ZM9.38123 44.7153C8.95521 44.543 8.6357 44.3889 8.42269 44.262C7.57066 43.7814 6.97601 43.1105 6.62987 42.2402C6.50562 41.8503 6.43462 41.4967 6.43462 41.1975C6.43462 40.4178 6.763 39.8013 7.42865 39.3661C8.08543 38.9309 8.83983 38.7133 9.70074 38.7133C10.1268 38.7133 10.4285 38.7315 10.5971 38.7768C12.6829 39.2573 14.2183 40.173 15.1946 41.5149C15.7892 42.2583 16.091 43.1287 16.091 44.126C16.091 45.1233 15.7715 45.8848 15.1324 46.5376C13.5526 46.2384 12.2125 45.8667 11.103 45.4315C11.9551 45.5222 12.6651 45.4406 13.242 45.2049C13.8189 44.9691 14.1029 44.5158 14.1029 43.863C14.1029 43.6001 14.0852 43.4097 14.0408 43.2737L13.8455 42.9473L13.9076 42.8204C13.9076 42.5575 13.8455 42.3671 13.7124 42.2311C13.5438 42.1042 13.3929 42.077 13.2686 42.1676C12.887 41.7778 12.4255 41.4423 11.8929 41.1522C11.3604 40.8711 10.8812 40.7261 10.4551 40.7261C9.81612 40.7261 9.40785 41.0071 9.23922 41.5783C9.19485 41.7052 9.23035 41.805 9.33685 41.8684C9.44335 41.9319 9.51436 41.9047 9.55873 41.7687C9.63861 41.5965 9.82499 41.4514 10.1001 41.3426C10.3753 41.2338 10.5971 41.1975 10.7747 41.2429L11.4137 41.4423C11.9639 41.5693 12.4343 41.8322 12.816 42.222L12.9402 42.2855C12.8515 42.3762 12.816 42.5031 12.816 42.6753C12.7716 42.7207 12.7539 42.8023 12.7539 42.9383C12.7982 43.1559 12.9047 43.3009 13.0734 43.3644C13.242 43.4279 13.4106 43.4188 13.5881 43.3281V43.5276C13.5881 43.6182 13.5438 43.8358 13.4639 44.1804C13.1621 44.7878 12.5053 45.0961 11.4847 45.0961C10.7569 45.0961 10.0558 44.9691 9.37235 44.7062L9.38123 44.7153ZM23.9457 6.91763C23.9457 6.91763 24.0344 6.9811 24.0699 6.9811L25.7296 6.78164L26.8124 8.02373C26.8124 8.02373 26.91 8.08719 26.9721 8.08719C27.0343 8.08719 27.0698 8.04186 27.0698 7.96026L27.3272 6.32832L28.8005 5.67554C28.8892 5.67554 28.9158 5.63928 28.8981 5.57581C28.8803 5.51235 28.8448 5.45795 28.8005 5.41262C28.6762 5.32195 28.2058 5.0409 27.3982 4.56038L27.336 2.9919C27.336 2.86497 27.2917 2.79244 27.2118 2.79244C27.1674 2.79244 27.1053 2.83777 27.0165 2.91937L25.8627 3.962L24.2652 3.57215C24.2652 3.57215 24.1764 3.53588 24.1409 3.60841C24.0965 3.67188 24.0965 3.72627 24.1409 3.7716C24.3983 4.46971 24.6113 4.96836 24.7799 5.27662L23.9457 6.78164C23.9457 6.78164 23.9013 6.8723 23.9457 6.90857V6.91763ZM29.2176 10.3447C29.2797 10.2812 29.2886 10.2269 29.2531 10.1815L29.191 10.0546L27.7887 8.48611C27.7887 8.48611 27.691 8.43171 27.6289 8.44985C27.5668 8.46798 27.5313 8.50424 27.5313 8.54958L27.5934 8.74903C28.5697 9.88233 29.0401 10.4263 28.9957 10.381C29.0845 10.4263 29.1555 10.4172 29.2176 10.3447ZM32.2175 11.7137C32.2352 11.6503 32.2263 11.5959 32.182 11.5505L28.2236 6.9811C28.2236 6.9811 28.1171 6.91763 28.0283 6.91763C27.9839 6.91763 27.9573 6.9539 27.9307 7.01736C27.9129 7.08083 27.9218 7.13522 27.9662 7.18056L31.8624 11.6231L32.0577 11.8225C32.1465 11.8225 32.1997 11.7863 32.2175 11.7228V11.7137ZM29.1821 6.65471L31.4808 9.20235C31.4808 9.20235 31.5873 9.25675 31.6761 9.23862C31.7648 9.22049 31.7826 9.16609 31.7382 9.07543L29.4395 6.46431C29.4395 6.37365 29.3774 6.33738 29.2442 6.33738C29.12 6.38272 29.0933 6.49151 29.1821 6.66377V6.65471Z" fill="white"/>
<path d="M48.1305 44.4887C47.2962 44.9873 46.6039 45.6129 46.0536 46.3473H36.5925L52.8965 0.652832H64.7806L80.9515 46.3473H71.2418C70.1768 44.8241 68.7301 43.9356 66.8929 43.6727L64.9137 37.0815H62.4198L62.4819 37.018L62.544 36.5647H63.2452C63.4138 36.2564 63.6268 35.7578 63.8842 35.0597H66.316C66.7864 33.9717 67.0172 32.7931 67.0172 31.5328C67.0172 30.5718 66.8663 29.6924 66.5734 28.8855C66.2716 28.0786 65.8456 27.4349 65.2954 26.9634H65.2332L64.9759 26.7639L64.9137 26.7005C64.7895 25.2227 64.4433 23.6542 63.8931 22.0041L63.5735 21.2244L63.5114 21.0975L63.1919 20.3178L63.1298 20.1908L62.686 19.4746L62.6239 19.3477L62.1801 18.6314V18.568L61.6653 17.9152L61.6032 17.8517L61.0885 17.1989L60.9642 17.1355L60.3873 16.5462L60.3252 16.4827L59.6861 15.9568L59.5619 15.8934C59.4376 15.7665 59.198 15.6123 58.8607 15.4401L58.1596 15.8934L58.0353 15.9568L57.4584 16.4827L57.3342 16.5462L56.7573 17.1355L56.633 17.1989L56.1183 17.8517L56.0561 17.9152L55.5414 18.568V18.6314L55.0976 19.3477L55.0355 19.4746L54.6538 20.1908L54.5296 20.3178C54.4852 20.49 54.3787 20.753 54.2101 21.0975L54.1479 21.2244C54.1036 21.3967 53.9971 21.6596 53.8284 22.0041C53.358 23.355 53.0208 24.9235 52.8078 26.7005L52.7456 26.7639L52.4883 26.9634C51.938 27.4439 51.512 28.0967 51.2102 28.9217C50.9084 29.7468 50.7664 30.6443 50.7664 31.5963C50.7664 32.8565 50.9794 34.008 51.4055 35.0597H53.8373C54.0947 35.7578 54.3077 36.2564 54.4763 36.5647H55.1775L55.3017 37.018V37.0815H52.8078L50.8286 43.6092C49.8878 43.6999 49.0091 43.99 48.1748 44.4887H48.1305ZM53.2072 6.85422H53.2693C53.7397 6.85422 54.1391 7.33474 54.4852 8.28671V8.15978C54.4852 7.86059 54.5296 7.51607 54.6095 7.14434C54.6982 6.77262 54.8668 6.5641 55.1242 6.52783H55C54.574 6.52783 54.2367 6.26491 53.9793 5.74813C53.9349 6.4009 53.6775 6.77262 53.216 6.85422H53.2072ZM55.1864 3.13701H55.3106C55.6922 3.13701 56.0561 3.61753 56.3934 4.5695C56.3934 3.4362 56.6064 2.82876 57.0324 2.73809H56.9082C56.5265 2.73809 56.1804 2.47517 55.8875 1.95839C55.8431 2.61117 55.6124 3.00102 55.1864 3.13701ZM57.4851 8.03285C57.778 7.98752 58.0797 8.14164 58.3815 8.48617C58.6744 8.83069 58.9317 9.29307 59.1448 9.85519C59.1448 9.24774 59.2069 8.71282 59.34 8.25951C59.4643 7.80619 59.6773 7.55233 59.979 7.507H59.7838C59.3134 7.507 58.8874 7.16248 58.5057 6.46437C58.417 7.38007 58.0797 7.89685 57.4851 8.03285ZM59.6595 4.24311H59.7216C60.1477 4.24311 60.5559 4.72363 60.9376 5.67559V5.54867C60.9376 4.50603 61.1328 3.93485 61.5145 3.85326H61.3902C61.0086 3.85326 60.6891 3.61753 60.4317 3.13701C60.3873 3.78979 60.1299 4.16151 59.6684 4.24311H59.6595ZM62.9168 7.57046C63.4315 7.4798 63.8753 7.98752 64.2569 9.07548C64.3013 7.89685 64.5321 7.27127 64.9581 7.18061H64.8338C64.4522 7.18061 64.0883 6.89955 63.7511 6.32837C63.7067 7.07181 63.4315 7.4798 62.9168 7.57046Z" fill="white"/>
<path d="M100.051 25.3949L100.566 46.3473H87.5901V25.3949L71.9961 0.652832L87.8474 0.716297L93.4744 13.382L98.5866 0.779761H114.047L100.051 25.3859V25.3949ZM82.0341 8.29577L84.2707 9.80079C84.3594 9.89145 84.4304 9.89145 84.4926 9.80079C84.5547 9.71012 84.5636 9.62853 84.5281 9.53786V9.4744C84.3594 8.51336 83.9068 7.51607 83.1879 6.47343C83.1435 6.4281 83.3388 5.99292 83.7648 5.16788C83.8535 4.82336 83.889 4.60576 83.889 4.5151C84.0133 4.29751 84.0399 4.12525 83.9512 3.98925L83.6938 3.86232C83.1435 3.86232 82.54 4.14338 81.901 4.71456C81.4306 4.10711 80.8537 3.56313 80.1792 3.08262H80.0549C80.0105 2.99195 79.9484 2.97382 79.8596 3.01915C79.7709 3.06448 79.7531 3.12795 79.7975 3.21861C79.7975 3.74446 79.9218 4.52417 80.1792 5.5668C79.2029 5.65746 78.3242 5.87505 77.5609 6.21958C77.4722 6.26491 77.4367 6.31931 77.4367 6.38277C77.4367 6.44624 77.4811 6.50063 77.5609 6.54597H77.6231C77.8361 6.71823 78.2 6.85422 78.7058 6.93582L80.4277 7.46167C80.5963 8.76722 80.7472 9.74639 80.8714 10.3992V10.6621C80.9158 10.7528 80.9779 10.789 81.0667 10.789C81.1554 10.789 81.2176 10.7437 81.2619 10.6621C81.3507 10.3176 81.4306 10.0546 81.5193 9.88238L82.0341 8.31391V8.29577ZM85.5132 16.1654C85.6197 16.1019 85.6552 16.0022 85.6109 15.8752C84.7588 14.0438 83.8447 12.4572 82.8595 11.1063C82.8151 11.0157 82.753 11.0157 82.6642 11.1063C82.5755 11.197 82.5577 11.2786 82.6021 11.3693C83.6228 12.8471 84.5192 14.4156 85.2825 16.0656C85.3268 16.1926 85.3979 16.2288 85.5044 16.1654H85.5132ZM86.1168 14.0801C86.241 14.0166 86.2676 13.935 86.1789 13.8534L84.2618 10.789C84.2174 10.6621 84.1198 10.6258 83.9778 10.6893C83.8269 10.7528 83.7914 10.8344 83.8802 10.9159L85.7972 14.0529C85.886 14.1436 85.9925 14.1526 86.1168 14.0892V14.0801ZM84.1376 5.10441C84.0488 5.19508 84.0488 5.27667 84.1376 5.36734C85.886 7.15341 87.5279 9.19334 89.0545 11.5053C89.1432 11.6322 89.232 11.6685 89.3385 11.605C89.445 11.5415 89.4539 11.4418 89.374 11.3149C87.7498 8.83069 86.0901 6.76356 84.3861 5.11348C84.2973 5.02282 84.2174 5.02282 84.1287 5.11348L84.1376 5.10441ZM90.013 15.5851C90.1373 15.5217 90.1817 15.4219 90.1373 15.295C88.8592 12.6839 87.3238 10.1997 85.5399 7.85152C85.4511 7.76086 85.3535 7.77899 85.2558 7.88779C85.1493 7.99658 85.1405 8.09631 85.2203 8.17791C87.093 10.5714 88.6107 13.0103 89.7556 15.4854C89.8 15.6123 89.8799 15.6486 90.013 15.5851ZM88.8592 15.6486C88.9835 15.5851 89.0101 15.4854 88.9214 15.3585C87.5546 13.0919 86.5161 11.3965 85.7884 10.2632C85.6996 10.1725 85.602 10.1634 85.5044 10.2269C85.3979 10.2904 85.389 10.372 85.4689 10.4536C86.3209 11.7138 87.3415 13.4092 88.5397 15.5489C88.6285 15.6758 88.735 15.7121 88.8592 15.6486ZM88.6018 18.7855C88.7261 18.7221 88.7705 18.6405 88.7261 18.5589C88.1315 17.344 87.6611 16.4464 87.3238 15.8843C87.2794 15.7937 87.2084 15.7846 87.1019 15.848C86.9954 15.9115 86.9599 15.9931 87.0043 16.0747C87.5546 16.9904 88.0072 17.8608 88.3445 18.6858C88.3888 18.8127 88.4687 18.849 88.6018 18.7855ZM91.0958 20.2906C91.2201 20.2271 91.2644 20.1274 91.2201 20.0004C90.8828 19.393 90.5367 18.6496 90.1994 17.7792C90.155 17.6885 90.084 17.6795 89.9775 17.7429C89.871 17.8064 89.8355 17.888 89.8799 17.9696L90.8384 20.1908C90.8828 20.3178 90.9627 20.354 91.0958 20.2906ZM92.2141 16.3739C92.3206 16.3104 92.3295 16.2288 92.2496 16.1472C91.9922 15.4491 91.655 14.8598 91.2289 14.3884C91.1846 14.2614 91.1224 14.2342 91.0337 14.3249C90.9449 14.4156 90.9272 14.5244 90.9716 14.6513C91.3976 15.2134 91.7171 15.7846 91.9301 16.3467C92.0188 16.4374 92.1076 16.4464 92.2141 16.383V16.3739Z" fill="white"/>
<path d="M146.38 35.4495V46.3473H116.604V0.652832H146.318V11.5506H129.446V19.121H142.289V28.133H129.446V35.4404H146.38V35.4495ZM118.902 7.90592C119.586 8.68563 120.056 9.30214 120.305 9.73732C120.136 10.653 119.834 11.605 119.408 12.6114L118.964 14.0438C120.411 13.4364 121.503 13.0012 122.222 12.7383C122.31 12.693 122.452 12.6748 122.665 12.6748C122.878 12.6748 123.047 12.7202 123.18 12.8018C123.562 13.0193 124.094 13.3911 124.778 13.9078L126.313 15.0865C126.224 13.2551 126.189 11.8861 126.189 10.9703L129.704 8.29577C127.911 7.86059 126.597 7.51607 125.745 7.25314C125.23 5.68466 124.804 4.29751 124.467 3.07355C124.041 3.63566 123.446 4.53323 122.674 5.74813C122.293 6.31024 121.911 6.60036 121.52 6.60036C121.05 6.6457 120.633 6.65476 120.278 6.63663C119.914 6.6185 119.603 6.60036 119.355 6.60036C119.018 6.55503 118.503 6.5369 117.819 6.5369C118.032 6.84515 118.396 7.29847 118.902 7.90592ZM120.376 16.0022C119.825 16.0022 119.417 16.0203 119.16 16.0656L120.438 17.897C120.393 18.2416 120.296 18.6768 120.154 19.2026C120.003 19.7285 119.887 20.1364 119.799 20.4447C120.482 20.1364 121.228 19.8554 122.035 19.5925C122.461 19.9007 122.843 20.1818 123.189 20.4447C123.526 20.7076 123.828 20.9252 124.085 21.0975C124.085 20.0095 124.068 19.2026 124.023 18.6858C124.955 17.9877 125.665 17.4437 126.136 17.0539L123.837 16.4646C123.5 15.4219 123.216 14.6332 123.003 14.1164C122.408 14.8961 121.938 15.4854 121.6 15.8752C121.343 15.9659 120.935 16.0022 120.384 16.0022H120.376ZM120.633 24.4883C120.331 25.268 120.1 25.9661 119.932 26.5736C120.145 26.4829 120.447 26.365 120.828 26.2109C121.21 26.0568 121.556 25.9842 121.849 25.9842C122.142 26.1112 122.479 26.3106 122.843 26.5736C123.207 26.8365 123.473 27.0269 123.642 27.1629L123.58 25.1411C124.343 24.5336 124.92 24.0531 125.301 23.7086L123.384 23.2553C123.296 22.9107 123.065 22.1492 122.683 20.9705C122.594 21.0975 122.195 21.714 121.467 22.8019H119.231L120.633 24.4974V24.4883ZM121.334 31.2155H121.591C121.973 31.2155 122.55 31.3425 123.313 31.6054C123.571 30.7803 123.935 30.1004 124.396 29.5836C123.713 29.1937 123.207 28.6225 122.861 27.8882C122.266 28.5863 121.52 28.9308 120.624 28.9308C121.094 29.6742 121.325 30.4358 121.325 31.2155H121.334ZM122.736 35.2591C123.287 35.2591 123.864 35.3226 124.458 35.4586C124.795 34.7605 125.079 34.2437 125.292 33.8901C124.991 33.6725 124.591 33.3008 124.077 32.784L122.603 33.5637C122.692 34.2618 122.728 34.8239 122.728 35.2591H122.736ZM126.446 37.154L125.488 36.2383L124.467 36.6916C124.467 37.2991 124.485 37.7796 124.529 38.1241C125.505 38.1241 126.145 37.7977 126.446 37.1449V37.154Z" fill="white"/>
<path d="M185.742 6.65476C185.787 6.52783 185.804 6.31024 185.804 6.00198C185.804 5.61213 185.698 5.14975 185.485 4.63296L185.423 4.50603V4.44257L185.361 4.3791V4.31564H185.298V4.18871H185.236V4.12525H185.174V4.06178L185.112 3.99832V3.93485H185.05V3.87139H184.988V3.80792H184.926V3.74446L184.864 3.681L184.801 3.61753L184.739 3.55407V3.4906H184.677L184.615 3.42714H184.553V3.36367H184.491V3.30021H184.429C184.429 3.30021 184.411 3.23674 184.367 3.23674H184.304V3.17328H184.242C184.242 3.17328 184.225 3.10982 184.18 3.10982H184.118V3.04635H184.056L183.994 2.98289H183.932L183.869 2.91942H183.807L183.745 2.85596H183.683L183.621 2.79249H183.559L183.435 2.72903H183.31L183.248 2.66556H182.991L182.929 2.6021H182.094C181.198 2.69276 180.452 3.03728 179.858 3.64473L179.663 3.84419C178.429 3.36367 177.417 3.04635 176.627 2.90129C175.837 2.74716 175.402 2.75623 175.314 2.93755C175.225 2.93755 175.225 2.98289 175.314 3.06448V3.12795C175.225 3.30021 175.509 3.63566 176.148 4.14338C176.787 4.64203 177.683 5.22228 178.828 5.87505C178.74 6.4009 178.793 6.94488 178.988 7.507C179.183 8.06911 179.467 8.54963 179.849 8.93948C180.532 9.63759 181.358 9.98211 182.343 9.98211C183.195 9.98211 183.985 9.67386 184.704 9.06641C184.704 9.02108 184.722 9.00295 184.766 9.00295L184.828 8.93948L185.023 8.74002L186.683 9.32934V46.4107H183.23C184.42 45.0599 185.023 43.4732 185.023 41.6418C185.023 40.6808 184.837 39.756 184.482 38.8675C184.118 37.979 183.577 37.1993 182.849 36.5465C182.68 36.3743 182.068 36.7007 181.029 37.5257C179.982 38.3507 178.802 39.4659 177.479 40.8531L176.902 40.3272C176.991 40.2003 177.027 40.019 177.027 39.8014C177.027 39.4931 176.938 39.2574 176.769 39.0851C176.725 39.0851 176.707 39.067 176.707 39.0217H176.645L176.583 38.9582H176.521L176.459 38.8947H176.263V38.8313H176.006C175.749 38.9219 175.562 39.0307 175.429 39.1577C175.26 39.4206 175.172 39.6382 175.172 39.8104C175.172 40.028 175.278 40.2456 175.491 40.4632C175.66 40.6355 175.855 40.7352 176.068 40.7533C176.281 40.7715 176.476 40.7171 176.645 40.5901L177.284 41.1795C176.006 42.485 174.897 43.8359 173.965 45.223V30.9889H161.628V46.3926H148.972V0.652832H150.312C150.099 0.961088 149.868 1.10615 149.611 1.10615C150.081 1.10615 150.401 1.66826 150.569 2.80156C150.827 1.66826 151.164 1.10615 151.59 1.10615C151.421 1.10615 151.182 0.952022 150.889 0.652832H161.628V9.3384C161.326 9.07548 161.113 8.73096 160.989 8.29577C160.776 9.16614 160.368 9.60133 159.773 9.60133C160.075 9.60133 160.323 9.80985 160.536 10.2178C160.749 10.6349 160.9 11.1426 160.98 11.7501C161.104 10.925 161.317 10.3176 161.619 9.91865V17.5525H173.956V0.652832H186.674V7.11715L185.778 6.66383L185.742 6.65476ZM151.235 13.8353C150.809 13.8353 150.507 13.5089 150.338 12.8562C150.125 13.5089 149.806 13.8353 149.38 13.8353C149.806 13.8353 150.125 14.3793 150.338 15.4673C150.507 14.3793 150.809 13.8353 151.235 13.8353ZM152.069 7.3438C152.282 6.92675 152.54 6.72729 152.832 6.72729C152.282 6.72729 151.847 6.29211 151.554 5.42174C151.341 6.29211 150.933 6.72729 150.338 6.72729C150.64 6.72729 150.889 6.93582 151.102 7.3438C151.315 7.76086 151.466 8.25044 151.546 8.81255C151.67 8.25044 151.838 7.76086 152.06 7.3438H152.069ZM155.007 3.4634C154.581 3.4634 154.261 3.13701 154.048 2.48424C153.88 3.13701 153.56 3.4634 153.09 3.4634C153.56 3.4634 153.88 4.00738 154.048 5.09535C154.261 4.00738 154.581 3.4634 155.007 3.4634ZM155.708 7.3166C156.178 7.3166 156.498 7.90592 156.667 9.07548C156.924 7.89685 157.261 7.3166 157.687 7.3166C157.261 7.3166 156.924 6.99022 156.667 6.33744C156.498 6.99022 156.178 7.3166 155.708 7.3166ZM158.14 12.8652C157.714 12.8652 157.377 12.5388 157.119 11.886C156.951 12.5388 156.604 12.8652 156.099 12.8652C156.613 12.8652 156.951 13.4545 157.119 14.6241C157.377 13.4455 157.714 12.8652 158.14 12.8652ZM159.737 2.62023C159.311 2.62023 158.974 2.27571 158.717 1.5776C158.548 2.27571 158.202 2.62023 157.696 2.62023C158.167 2.62023 158.504 3.20954 158.717 4.3791C158.93 3.20048 159.267 2.62023 159.737 2.62023Z" fill="white"/>
</svg>
