<svg width="579" height="400" viewBox="0 0 579 400" fill="none" xmlns="http://www.w3.org/2000/svg">
<path d="M23.35 397.65C22.117 398.183 20.683 398.567 19.05 398.8C17.417 399.033 15.9 399.15 14.5 399.15C9.967 399.15 6.41701 397.967 3.85001 395.6C1.28301 393.233 0 389.6 0 384.7C0 379.7 1.35 375.967 4.05 373.5C6.75 371 10.55 369.75 15.45 369.75C17.783 369.75 20.217 370.067 22.75 370.7C22.75 371.367 22.683 372.367 22.55 373.7C22.417 375 22.283 375.917 22.15 376.45H19C16.7 376.45 14.883 376.5 13.55 376.6C12.25 376.667 11.467 376.817 11.2 377.05C10.7 377.517 10.317 378.467 10.05 379.9C9.783 381.3 9.64999 382.65 9.64999 383.95C9.64999 386.217 9.933 387.967 10.5 389.2C11.067 390.4 11.783 391.2 12.65 391.6C13.483 392 14.867 392.2 16.8 392.2C18.333 392.2 20.333 392.067 22.8 391.8L23.35 397.65ZM37.285 399.25C33.285 399.25 30.285 398.317 28.285 396.45C26.318 394.55 25.335 391.567 25.335 387.5C25.335 385.267 25.535 383.317 25.935 381.65C26.368 379.95 26.885 378.767 27.485 378.1C28.251 377.233 29.651 376.517 31.685 375.95C33.751 375.383 35.685 375.1 37.485 375.1C41.785 375.1 44.851 376.017 46.685 377.85C48.518 379.683 49.435 382.617 49.435 386.65C49.435 390.983 48.451 394.167 46.485 396.2C44.518 398.233 41.451 399.25 37.285 399.25ZM37.435 393.4C38.735 393.4 39.585 392.95 39.985 392.05C40.385 391.117 40.585 389.483 40.585 387.15C40.585 385.517 40.501 384.267 40.335 383.4C40.168 382.5 39.851 381.85 39.385 381.45C38.951 381.017 38.268 380.8 37.335 380.8C36.001 380.8 35.235 380.917 35.035 381.15C34.768 381.383 34.551 382.117 34.385 383.35C34.218 384.583 34.135 385.867 34.135 387.2C34.135 389.467 34.351 391.067 34.785 392C35.251 392.933 36.135 393.4 37.435 393.4ZM74.948 377.05C75.248 377.417 75.465 378.333 75.598 379.8C75.765 381.267 75.848 383.5 75.848 386.5V398.6H67.298V386.6V384.55C67.298 383.483 67.215 382.817 67.048 382.55C66.782 382.217 66.165 382.05 65.198 382.05C64.732 382.05 64.382 382.067 64.148 382.1C63.215 382.133 62.248 382.35 61.248 382.75V398.6H52.698V375.6H59.648L60.598 379.45C62.998 376.55 65.865 375.1 69.198 375.1C70.398 375.1 71.515 375.267 72.548 375.6C73.615 375.933 74.415 376.417 74.948 377.05ZM102.048 377.05C102.348 377.417 102.565 378.333 102.698 379.8C102.865 381.267 102.948 383.5 102.948 386.5V398.6H94.398V386.6V384.55C94.398 383.483 94.315 382.817 94.148 382.55C93.881 382.217 93.265 382.05 92.298 382.05C91.831 382.05 91.481 382.067 91.248 382.1C90.315 382.133 89.348 382.35 88.348 382.75V398.6H79.798V375.6H86.748L87.698 379.45C90.098 376.55 92.965 375.1 96.298 375.1C97.498 375.1 98.615 375.267 99.648 375.6C100.715 375.933 101.515 376.417 102.048 377.05ZM120.848 392.6C121.681 392.6 123.231 392.517 125.498 392.35C125.798 392.35 126.348 392.317 127.148 392.25L127.898 397.4C125.331 398.6 121.998 399.2 117.898 399.2C114.064 399.2 111.114 398.233 109.048 396.3C107.014 394.367 105.998 391.45 105.998 387.55C105.998 385.55 106.248 383.617 106.748 381.75C107.281 379.883 107.881 378.583 108.548 377.85C109.248 377.117 110.548 376.483 112.448 375.95C114.348 375.417 116.231 375.15 118.098 375.15C121.098 375.15 123.348 375.683 124.848 376.75C126.348 377.817 127.331 379.3 127.798 381.2C128.264 383.067 128.498 385.583 128.498 388.75C126.231 388.883 124.014 388.95 121.848 388.95H114.748C114.748 390.017 114.964 390.817 115.398 391.35C115.864 391.883 116.514 392.233 117.348 392.4C118.181 392.533 119.348 392.6 120.848 392.6ZM115.248 381.1C115.048 381.2 114.898 381.633 114.798 382.4C114.698 383.167 114.631 384.033 114.598 385H117.198C118.764 385 119.898 384.983 120.598 384.95C120.598 383.35 120.364 382.217 119.898 381.55C119.464 380.883 118.698 380.55 117.598 380.55C116.698 380.55 115.914 380.733 115.248 381.1ZM150.857 397.9C148.157 398.8 145.14 399.25 141.807 399.25C138.074 399.25 135.274 398.317 133.407 396.45C131.574 394.55 130.657 391.6 130.657 387.6C130.657 385.633 130.924 383.7 131.457 381.8C131.99 379.867 132.557 378.567 133.157 377.9C133.857 377.133 135.224 376.483 137.257 375.95C139.324 375.417 141.457 375.15 143.657 375.15C145.957 375.15 148.274 375.35 150.607 375.75C150.54 376.583 150.424 377.567 150.257 378.7C150.124 379.8 149.974 380.783 149.807 381.65C147.74 381.517 145.79 381.45 143.957 381.45C142.157 381.45 141.007 381.55 140.507 381.75C140.24 381.85 139.99 382.533 139.757 383.8C139.557 385.067 139.457 386.25 139.457 387.35C139.457 388.817 139.657 389.95 140.057 390.75C140.49 391.517 141.157 392.05 142.057 392.35C142.957 392.65 144.174 392.8 145.707 392.8C146.374 392.8 147.84 392.733 150.107 392.6L150.857 397.9ZM164.324 389.15C164.324 389.75 164.34 390.383 164.374 391.05C164.407 391.683 164.507 392.083 164.674 392.25C164.907 392.483 165.724 392.6 167.124 392.6L168.824 392.55C169.124 394.15 169.274 396 169.274 398.1C168.64 398.333 167.707 398.55 166.474 398.75C165.274 398.95 164.124 399.05 163.024 399.05C160.724 399.05 158.94 398.55 157.674 397.55C156.44 396.517 155.824 394.933 155.824 392.8V380.5H152.074V375.95L155.824 375.6L158.074 370.1L164.324 369.75V375.6H169.624V380.5H164.324V389.15ZM176.631 372.75C175.498 372.75 174.514 372.367 173.681 371.6C172.881 370.833 172.481 369.917 172.481 368.85C172.481 367.783 172.881 366.867 173.681 366.1C174.514 365.333 175.498 364.95 176.631 364.95C177.764 364.95 178.731 365.333 179.531 366.1C180.331 366.867 180.731 367.783 180.731 368.85C180.731 369.917 180.331 370.833 179.531 371.6C178.731 372.367 177.764 372.75 176.631 372.75ZM172.331 375.6H180.881V398.6H172.331V375.6ZM196.22 399.25C192.22 399.25 189.22 398.317 187.22 396.45C185.254 394.55 184.27 391.567 184.27 387.5C184.27 385.267 184.47 383.317 184.87 381.65C185.304 379.95 185.82 378.767 186.42 378.1C187.187 377.233 188.587 376.517 190.62 375.95C192.687 375.383 194.62 375.1 196.42 375.1C200.72 375.1 203.787 376.017 205.62 377.85C207.454 379.683 208.37 382.617 208.37 386.65C208.37 390.983 207.387 394.167 205.42 396.2C203.454 398.233 200.387 399.25 196.22 399.25ZM196.37 393.4C197.67 393.4 198.52 392.95 198.92 392.05C199.32 391.117 199.52 389.483 199.52 387.15C199.52 385.517 199.437 384.267 199.27 383.4C199.104 382.5 198.787 381.85 198.32 381.45C197.887 381.017 197.204 380.8 196.27 380.8C194.937 380.8 194.17 380.917 193.97 381.15C193.704 381.383 193.487 382.117 193.32 383.35C193.154 384.583 193.07 385.867 193.07 387.2C193.07 389.467 193.287 391.067 193.72 392C194.187 392.933 195.07 393.4 196.37 393.4ZM233.884 377.05C234.184 377.417 234.401 378.333 234.534 379.8C234.701 381.267 234.784 383.5 234.784 386.5V398.6H226.234V386.6V384.55C226.234 383.483 226.151 382.817 225.984 382.55C225.717 382.217 225.101 382.05 224.134 382.05C223.667 382.05 223.317 382.067 223.084 382.1C222.151 382.133 221.184 382.35 220.184 382.75V398.6H211.634V375.6H218.584L219.534 379.45C221.934 376.55 224.801 375.1 228.134 375.1C229.334 375.1 230.451 375.267 231.484 375.6C232.551 375.933 233.351 376.417 233.884 377.05ZM256.853 389.15C256.853 389.75 256.87 390.383 256.903 391.05C256.936 391.683 257.036 392.083 257.203 392.25C257.436 392.483 258.253 392.6 259.653 392.6L261.353 392.55C261.653 394.15 261.803 396 261.803 398.1C261.17 398.333 260.236 398.55 259.003 398.75C257.803 398.95 256.653 399.05 255.553 399.05C253.253 399.05 251.47 398.55 250.203 397.55C248.97 396.517 248.353 394.933 248.353 392.8V380.5H244.603V375.95L248.353 375.6L250.603 370.1L256.853 369.75V375.6H262.153V380.5H256.853V389.15ZM275.81 399.25C271.81 399.25 268.81 398.317 266.81 396.45C264.843 394.55 263.86 391.567 263.86 387.5C263.86 385.267 264.06 383.317 264.46 381.65C264.893 379.95 265.41 378.767 266.01 378.1C266.777 377.233 268.177 376.517 270.21 375.95C272.277 375.383 274.21 375.1 276.01 375.1C280.31 375.1 283.377 376.017 285.21 377.85C287.043 379.683 287.96 382.617 287.96 386.65C287.96 390.983 286.977 394.167 285.01 396.2C283.043 398.233 279.977 399.25 275.81 399.25ZM275.96 393.4C277.26 393.4 278.11 392.95 278.51 392.05C278.91 391.117 279.11 389.483 279.11 387.15C279.11 385.517 279.027 384.267 278.86 383.4C278.693 382.5 278.377 381.85 277.91 381.45C277.477 381.017 276.793 380.8 275.86 380.8C274.527 380.8 273.76 380.917 273.56 381.15C273.293 381.383 273.077 382.117 272.91 383.35C272.743 384.583 272.66 385.867 272.66 387.2C272.66 389.467 272.877 391.067 273.31 392C273.777 392.933 274.66 393.4 275.96 393.4ZM314.143 398.6H305.143V376.35H297.093V370.1H322.193V376.35H314.143V398.6ZM338.772 398.6H327.972L322.872 375.6H331.622L333.872 392.7H334.022L336.572 375.6H345.822L348.522 392.65H348.722L350.822 375.6H359.622L354.522 398.6H343.672L341.272 384.7H341.122L338.772 398.6ZM366.426 372.75C365.292 372.75 364.309 372.367 363.476 371.6C362.676 370.833 362.276 369.917 362.276 368.85C362.276 367.783 362.676 366.867 363.476 366.1C364.309 365.333 365.292 364.95 366.426 364.95C367.559 364.95 368.526 365.333 369.326 366.1C370.126 366.867 370.526 367.783 370.526 368.85C370.526 369.917 370.126 370.833 369.326 371.6C368.526 372.367 367.559 372.75 366.426 372.75ZM362.126 375.6H370.676V398.6H362.126V375.6ZM385.515 389.15C385.515 389.75 385.532 390.383 385.565 391.05C385.599 391.683 385.699 392.083 385.865 392.25C386.099 392.483 386.915 392.6 388.315 392.6L390.015 392.55C390.315 394.15 390.465 396 390.465 398.1C389.832 398.333 388.899 398.55 387.665 398.75C386.465 398.95 385.315 399.05 384.215 399.05C381.915 399.05 380.132 398.55 378.865 397.55C377.632 396.517 377.015 394.933 377.015 392.8V380.5H373.265V375.95L377.015 375.6L379.265 370.1L385.515 369.75V375.6H390.815V380.5H385.515V389.15ZM412.722 397.9C410.022 398.8 407.006 399.25 403.672 399.25C399.939 399.25 397.139 398.317 395.272 396.45C393.439 394.55 392.522 391.6 392.522 387.6C392.522 385.633 392.789 383.7 393.322 381.8C393.856 379.867 394.422 378.567 395.022 377.9C395.722 377.133 397.089 376.483 399.122 375.95C401.189 375.417 403.322 375.15 405.522 375.15C407.822 375.15 410.139 375.35 412.472 375.75C412.406 376.583 412.289 377.567 412.122 378.7C411.989 379.8 411.839 380.783 411.672 381.65C409.606 381.517 407.656 381.45 405.822 381.45C404.022 381.45 402.872 381.55 402.372 381.75C402.106 381.85 401.856 382.533 401.622 383.8C401.422 385.067 401.322 386.25 401.322 387.35C401.322 388.817 401.522 389.95 401.922 390.75C402.356 391.517 403.022 392.05 403.922 392.35C404.822 392.65 406.039 392.8 407.572 392.8C408.239 392.8 409.706 392.733 411.972 392.6L412.722 397.9ZM437.839 377.05C438.139 377.417 438.356 378.333 438.489 379.8C438.656 381.267 438.739 383.5 438.739 386.5V398.6H430.189V386.6C430.189 386.467 430.189 385.817 430.189 384.65C430.189 383.45 430.106 382.717 429.939 382.45C429.839 382.317 429.589 382.217 429.189 382.15C428.822 382.083 428.389 382.05 427.889 382.05L427.039 382.1C426.106 382.133 425.139 382.35 424.139 382.75V398.6H415.589V368.6L424.139 368.25V374.1C424.139 376.5 424.056 378.1 423.889 378.9L423.939 378.95C426.206 376.383 428.922 375.1 432.089 375.1C433.289 375.1 434.406 375.267 435.439 375.6C436.506 375.933 437.306 376.417 437.839 377.05ZM461.108 373C460.875 373.233 460.758 373.95 460.758 375.15V375.6H466.058V380.5H460.758V398.6H452.208V380.5H448.458V376.05L452.208 375.6V374.85C452.208 373.383 452.408 371.983 452.808 370.65C453.208 369.317 453.575 368.517 453.908 368.25C454.942 367.383 457.142 366.95 460.508 366.95C462.342 366.95 464.392 367.083 466.658 367.35C466.658 367.75 466.592 368.55 466.458 369.75C466.358 370.95 466.258 371.967 466.158 372.8L464.008 372.75C462.242 372.75 461.275 372.833 461.108 373ZM480.412 398.6L479.612 395.45C478.079 397.95 475.945 399.2 473.212 399.2C470.979 399.2 469.145 398.583 467.712 397.35C466.312 396.083 465.612 394.317 465.612 392.05C465.612 390.65 466.012 389.433 466.812 388.4C467.645 387.333 468.779 386.583 470.212 386.15C472.079 385.617 474.962 385.317 478.862 385.25C478.862 383.05 478.762 381.883 478.562 381.75C478.395 381.617 477.862 381.55 476.962 381.55C476.395 381.55 475.612 381.583 474.612 381.65C473.012 381.717 470.845 381.9 468.112 382.2C467.845 380.4 467.645 378.467 467.512 376.4C469.279 376.033 471.129 375.733 473.062 375.5C474.995 375.233 476.729 375.1 478.262 375.1C480.929 375.1 482.929 375.55 484.262 376.45C485.595 377.317 486.462 378.467 486.862 379.9C487.262 381.333 487.445 383.15 487.412 385.35L487.362 392.7L487.512 398.6H480.412ZM476.112 393.6C476.979 393.6 477.895 393.433 478.862 393.1V389.4H478.462C475.995 389.4 474.629 389.533 474.362 389.8C474.195 389.967 474.062 390.217 473.962 390.55C473.895 390.883 473.862 391.2 473.862 391.5C473.862 392.3 474.045 392.85 474.412 393.15C474.779 393.45 475.345 393.6 476.112 393.6ZM495.723 372.75C494.589 372.75 493.606 372.367 492.773 371.6C491.973 370.833 491.573 369.917 491.573 368.85C491.573 367.783 491.973 366.867 492.773 366.1C493.606 365.333 494.589 364.95 495.723 364.95C496.856 364.95 497.823 365.333 498.623 366.1C499.423 366.867 499.823 367.783 499.823 368.85C499.823 369.917 499.423 370.833 498.623 371.6C497.823 372.367 496.856 372.75 495.723 372.75ZM491.423 375.6H499.973V398.6H491.423V375.6ZM504.362 368.6L512.912 368.25V398.6H504.362V368.6ZM531.102 392.6C531.935 392.6 533.485 392.517 535.752 392.35C536.052 392.35 536.602 392.317 537.402 392.25L538.152 397.4C535.585 398.6 532.252 399.2 528.152 399.2C524.318 399.2 521.368 398.233 519.302 396.3C517.268 394.367 516.252 391.45 516.252 387.55C516.252 385.55 516.502 383.617 517.002 381.75C517.535 379.883 518.135 378.583 518.802 377.85C519.502 377.117 520.802 376.483 522.702 375.95C524.602 375.417 526.485 375.15 528.352 375.15C531.352 375.15 533.602 375.683 535.102 376.75C536.602 377.817 537.585 379.3 538.052 381.2C538.518 383.067 538.752 385.583 538.752 388.75C536.485 388.883 534.268 388.95 532.102 388.95H525.002C525.002 390.017 525.218 390.817 525.652 391.35C526.118 391.883 526.768 392.233 527.602 392.4C528.435 392.533 529.602 392.6 531.102 392.6ZM525.502 381.1C525.302 381.2 525.152 381.633 525.052 382.4C524.952 383.167 524.885 384.033 524.852 385H527.452C529.018 385 530.152 384.983 530.852 384.95C530.852 383.35 530.618 382.217 530.152 381.55C529.718 380.883 528.952 380.55 527.852 380.55C526.952 380.55 526.168 380.733 525.502 381.1ZM564.661 368.25V398.6H557.611L556.911 394.75C556.244 396.05 555.261 397.083 553.961 397.85C552.661 398.617 551.194 399 549.561 399C546.961 399 544.878 398.067 543.311 396.2C541.778 394.333 541.011 391.533 541.011 387.8C541.011 384.967 541.344 382.633 542.011 380.8C542.678 378.967 543.461 377.65 544.361 376.85C544.928 376.35 546.078 375.933 547.811 375.6C549.578 375.267 551.144 375.1 552.511 375.1C553.711 375.1 554.944 375.217 556.211 375.45C556.111 373.85 556.061 372.967 556.061 372.8V368.6L564.661 368.25ZM553.311 392.3C554.211 392.3 555.144 392.15 556.111 391.85V381C555.144 380.867 554.078 380.8 552.911 380.8C551.911 380.8 551.278 380.883 551.011 381.05C550.644 381.317 550.344 382.083 550.111 383.35C549.911 384.583 549.811 385.883 549.811 387.25C549.811 389.283 550.111 390.633 550.711 391.3C551.344 391.967 552.211 392.3 553.311 392.3ZM573.413 399C572.046 399 570.913 398.55 570.013 397.65C569.146 396.75 568.713 395.533 568.713 394C568.713 392.667 569.163 391.55 570.063 390.65C570.996 389.717 572.163 389.25 573.563 389.25C574.896 389.25 576.013 389.717 576.913 390.65C577.813 391.55 578.263 392.667 578.263 394C578.263 395.533 577.813 396.75 576.913 397.65C576.046 398.55 574.88 399 573.413 399Z" fill="#6F00C3"/>
<path fill-rule="evenodd" clip-rule="evenodd" d="M253.749 240.802C253.749 258.001 269.3 275.202 288.5 275.202C307.7 275.202 323.251 258.001 323.251 240.802C323.251 189.202 253.749 189.202 253.749 240.802ZM214.776 167.823L239.362 192.162C266.451 165.33 310.549 165.33 337.638 192.162L362.224 167.823C321.496 127.524 255.504 127.524 214.776 167.823ZM116.5 70.5233L141.069 94.8619C222.369 14.3845 354.631 14.3845 435.931 94.8619L460.5 70.5233C365.508 -23.5077 211.492 -23.5077 116.5 70.5233ZM411.362 119.184L386.793 143.501C332.599 89.8555 244.401 89.8555 190.207 143.501L165.638 119.184C233.489 52.0188 343.511 52.0188 411.362 119.184Z" fill="#662D91"/>
<circle cx="391" cy="222.1" r="56" stroke="#662D91" stroke-width="11"/>
<path d="M397.25 182.873L396.54 235.145H388.301L387.591 182.873H397.25ZM392.42 256.168C390.669 256.168 389.165 255.541 387.911 254.286C386.656 253.031 386.028 251.528 386.028 249.776C386.028 248.024 386.656 246.521 387.911 245.266C389.165 244.011 390.669 243.384 392.42 243.384C394.172 243.384 395.676 244.011 396.93 245.266C398.185 246.521 398.812 248.024 398.812 249.776C398.812 250.936 398.517 252.001 397.925 252.972C397.357 253.943 396.587 254.724 395.616 255.316C394.67 255.884 393.604 256.168 392.42 256.168Z" fill="#662D91"/>
</svg>
