<svg width="640" height="512" viewBox="0 0 640 512" fill="none" xmlns="http://www.w3.org/2000/svg">
<path d="M524.531 69.836C524.367 69.5193 524.097 69.2712 523.767 69.136C485.644 51.6446 445.413 39.1719 404.081 32.03C403.705 31.9602 403.317 32.0105 402.972 32.1739C402.627 32.3373 402.342 32.6053 402.158 32.94C396.68 42.8829 391.707 53.0959 387.258 63.54C342.704 56.7768 297.385 56.7768 252.832 63.54C248.354 53.0693 243.301 42.8538 237.697 32.94C237.505 32.6126 237.218 32.3507 236.875 32.1884C236.532 32.0261 236.148 31.9709 235.773 32.03C194.437 39.1569 154.203 51.6306 116.085 69.137C115.759 69.2753 115.483 69.5115 115.297 69.813C39.0679 183.651 18.1859 294.69 28.4299 404.354C28.4587 404.623 28.5413 404.883 28.6727 405.119C28.8041 405.355 28.9817 405.563 29.1949 405.729C73.5823 438.595 123.23 463.681 176.02 479.918C176.392 480.029 176.789 480.024 177.157 479.904C177.526 479.783 177.849 479.552 178.083 479.242C189.421 463.815 199.467 447.479 208.12 430.4C208.239 430.166 208.307 429.909 208.319 429.646C208.331 429.384 208.288 429.122 208.192 428.877C208.095 428.633 207.949 428.411 207.76 428.228C207.572 428.044 207.348 427.902 207.101 427.812C191.258 421.75 175.921 414.443 161.233 405.959C160.966 405.802 160.742 405.582 160.58 405.318C160.419 405.054 160.325 404.754 160.306 404.445C160.288 404.136 160.346 403.828 160.476 403.546C160.605 403.265 160.801 403.02 161.048 402.833C164.13 400.524 167.214 398.122 170.157 395.696C170.418 395.481 170.735 395.343 171.07 395.297C171.406 395.252 171.748 395.302 172.057 395.44C268.286 439.357 372.467 439.357 467.557 395.44C467.867 395.293 468.212 395.236 468.553 395.278C468.893 395.319 469.215 395.456 469.481 395.673C472.425 398.099 475.508 400.524 478.613 402.833C478.861 403.018 479.059 403.262 479.19 403.542C479.322 403.822 479.382 404.13 479.366 404.439C479.35 404.748 479.258 405.048 479.098 405.314C478.939 405.579 478.716 405.8 478.451 405.959C463.796 414.514 448.445 421.817 432.561 427.789C432.314 427.883 432.09 428.028 431.903 428.214C431.717 428.401 431.571 428.624 431.477 428.871C431.382 429.117 431.341 429.381 431.356 429.644C431.37 429.908 431.44 430.165 431.561 430.4C440.358 447.384 450.39 463.699 461.575 479.215C461.802 479.533 462.123 479.772 462.493 479.898C462.864 480.023 463.264 480.029 463.638 479.915C516.522 463.733 566.257 438.644 610.7 405.729C610.916 405.571 611.096 405.369 611.228 405.136C611.36 404.902 611.441 404.644 611.465 404.377C623.729 277.594 590.933 167.465 524.531 69.836ZM222.491 337.58C193.519 337.58 169.647 310.993 169.647 278.341C169.647 245.689 193.056 219.1 222.491 219.1C252.156 219.1 275.797 245.92 275.334 278.339C275.334 310.993 251.924 337.58 222.491 337.58ZM417.871 337.58C388.9 337.58 365.028 310.993 365.028 278.341C365.028 245.689 388.437 219.1 417.871 219.1C447.538 219.1 471.178 245.92 470.715 278.339C470.715 310.993 447.538 337.58 417.871 337.58Z" fill="#662D91"/>
</svg>
