<svg width="128" height="97" viewBox="0 0 128 97" fill="none" xmlns="http://www.w3.org/2000/svg">
<path d="M41.6999 79.8957L35.3679 92C27.3024 88.7878 18.9504 85.5756 10.0713 80.047C6.97487 78.1186 5.09741 74.8421 5.02301 71.3106C4.63676 53.1814 9.08661 34.9552 20.3537 15.6851C21.8283 13.1629 24.2852 11.3139 27.1346 10.3471C33.9321 8.04122 38.5465 6.25885 46.449 5L51.198 13.3217C51.198 13.3217 55.9471 11.8087 63.8621 11.8087C71.7772 11.8087 76.5263 13.3217 76.5263 13.3217L81.2753 5C89.1777 6.25885 93.7922 8.04122 100.59 10.3471C103.439 11.3139 105.896 13.1629 107.371 15.6851C118.638 34.9552 123.088 53.1814 122.702 71.3106C122.627 74.8421 120.749 78.1186 117.653 80.047C108.774 85.5756 100.423 88.7878 92.3564 92L86.0244 79.8957M32.2018 73.8435C32.2018 73.8435 48.032 81.4087 63.8621 81.4087C79.6923 81.4087 95.5225 73.8435 95.5225 73.8435" stroke="#662D91" stroke-width="10" stroke-linecap="round" stroke-linejoin="round"/>
<path d="M44.1262 63C49.6718 63 54.1675 57.9836 54.1675 51.7955C54.1675 45.6074 49.6718 40.5909 44.1262 40.5909C38.5806 40.5909 34.085 45.6074 34.085 51.7955C34.085 57.9836 38.5806 63 44.1262 63Z" fill="#662D91"/>
<path d="M83.5989 63C89.1445 63 93.6401 57.9836 93.6401 51.7955C93.6401 45.6074 89.1445 40.5909 83.5989 40.5909C78.0532 40.5909 73.5576 45.6074 73.5576 51.7955C73.5576 57.9836 78.0532 63 83.5989 63Z" fill="#662D91"/>
</svg>
